<svg width="1280" height="441" viewBox="0 0 1280 441" fill="none" xmlns="http://www.w3.org/2000/svg">
<g opacity="0.4">
<path d="M480.088 383.855V449.065H455.934V383.855H480.088ZM481.126 382.817H454.896V450.102H481.126V382.817Z" fill="#BA9E66"/>
<path d="M496.055 395.258V431.935H486.717V395.237H496.055V395.258ZM497.093 394.199H485.68V432.972H497.093V394.199Z" fill="#BA9E66"/>
<path d="M496.055 438.595V449.064H486.717V438.595H496.055ZM497.093 437.558H485.68V450.101H497.093V437.558Z" fill="#BA9E66"/>
<path d="M738.964 434.01V447.903H548.305V434.01H738.964ZM740.002 432.973H547.268V448.94H740.002V432.973Z" fill="#BA9E66"/>
<path d="M479.984 431.852H456.037V432.993H479.984V431.852Z" fill="#BA9E66"/>
<path d="M467.44 389.654H456.037V390.796H467.44V389.654Z" fill="#BA9E66"/>
<path d="M467.44 396.492H456.037V397.633H467.44V396.492Z" fill="#BA9E66"/>
<path d="M467.44 403.34H456.037V404.481H467.44V403.34Z" fill="#BA9E66"/>
<path d="M467.44 410.178H456.037V411.319H467.44V410.178Z" fill="#BA9E66"/>
<path d="M467.44 417.025H456.037V418.167H467.44V417.025Z" fill="#BA9E66"/>
<path d="M467.44 423.862H456.037V425.004H467.44V423.862Z" fill="#BA9E66"/>
<path d="M603.254 309.722V356.692H573.393V309.722H603.254ZM604.291 308.685H572.355V357.729H604.291V308.685Z" fill="#BA9E66"/>
<path d="M603.151 341.751H573.498V342.892H603.151V341.751Z" fill="#BA9E66"/>
<path d="M603.151 345.175H573.498V346.316H603.151V345.175Z" fill="#BA9E66"/>
<path d="M486.831 375.97H485.689V388.514H486.831V375.97Z" fill="#BA9E66"/>
<path d="M495.952 375.97H494.811V388.514H495.952V375.97Z" fill="#BA9E66"/>
<path d="M556.399 373.687H555.258V386.23H556.399V373.687Z" fill="#BA9E66"/>
<path d="M563.235 373.687H562.094V386.23H563.235V373.687Z" fill="#BA9E66"/>
<path d="M612.27 373.687H611.129V386.23H612.27V373.687Z" fill="#BA9E66"/>
<path d="M619.118 373.687H617.977V386.23H619.118V373.687Z" fill="#BA9E66"/>
<path d="M670.436 373.687H669.295V386.23H670.436V373.687Z" fill="#BA9E66"/>
<path d="M677.284 373.687H676.143V386.23H677.284V373.687Z" fill="#BA9E66"/>
<path d="M726.317 373.687H725.176V386.23H726.317V373.687Z" fill="#BA9E66"/>
<path d="M733.155 373.687H732.014V386.23H733.155V373.687Z" fill="#BA9E66"/>
<path d="M493.679 389.654H487.973V390.796H493.679V389.654Z" fill="#BA9E66"/>
<path d="M486.832 378.252H476.57V379.393H486.832V378.252Z" fill="#BA9E66"/>
<path d="M506.213 378.252H495.951V379.393H506.213V378.252Z" fill="#BA9E66"/>
<path d="M532.441 378.252H522.18V379.393H532.441V378.252Z" fill="#BA9E66"/>
<path d="M459.461 378.252H449.199V379.393H459.461V378.252Z" fill="#BA9E66"/>
<path d="M589.465 308.685H588.324V342.892H589.465V308.685Z" fill="#BA9E66"/>
<path d="M597.454 308.685H596.312V342.892H597.454V308.685Z" fill="#BA9E66"/>
<path d="M570.085 244.824H568.943V273.336H570.085V244.824Z" fill="#BA9E66"/>
<path d="M557.54 244.824H556.398V273.336H557.54V244.824Z" fill="#BA9E66"/>
<path d="M559.813 255.085H558.672V273.335H559.813V255.085Z" fill="#BA9E66"/>
<path d="M567.801 255.085H566.66V273.335H567.801V255.085Z" fill="#BA9E66"/>
<path d="M559.813 244.824H558.672V251.662H559.813V244.824Z" fill="#BA9E66"/>
<path d="M555.259 242.541H554.117V245.965H555.259V242.541Z" fill="#BA9E66"/>
<path d="M572.356 242.541H571.215V245.965H572.356V242.541Z" fill="#BA9E66"/>
<path d="M567.801 244.824H566.66V251.662H567.801V244.824Z" fill="#BA9E66"/>
<path d="M581.487 308.685H580.346V342.892H581.487V308.685Z" fill="#BA9E66"/>
<path d="M682.595 386.23H662.508V387.372H682.595V386.23Z" fill="#BA9E66"/>
<path d="M737.72 386.23H719.854V387.372H737.72V386.23Z" fill="#BA9E66"/>
<path d="M625.863 386.23H605.6V387.372H625.863V386.23Z" fill="#BA9E66"/>
<path d="M568.734 386.23H550.691V387.372H568.734V386.23Z" fill="#BA9E66"/>
<path d="M604.291 315.522H572.355V316.664H604.291V315.522Z" fill="#BA9E66"/>
<path d="M604.291 322.37H572.355V323.511H604.291V322.37Z" fill="#BA9E66"/>
<path d="M604.291 329.207H572.355V330.348H604.291V329.207Z" fill="#BA9E66"/>
<path d="M604.291 336.055H572.355V337.196H604.291V336.055Z" fill="#BA9E66"/>
<path d="M659.136 309.722V356.692H629.276V309.722H659.136ZM660.174 308.685H628.238V357.729H660.174V308.685Z" fill="#BA9E66"/>
<path d="M659.032 341.751H629.379V342.892H659.032V341.751Z" fill="#BA9E66"/>
<path d="M659.032 345.175H629.379V346.316H659.032V345.175Z" fill="#BA9E66"/>
<path d="M645.348 308.685H644.207V342.892H645.348V308.685Z" fill="#BA9E66"/>
<path d="M653.327 308.685H652.186V342.892H653.327V308.685Z" fill="#BA9E66"/>
<path d="M637.368 308.685H636.227V342.892H637.368V308.685Z" fill="#BA9E66"/>
<path d="M660.174 315.522H628.238V316.664H660.174V315.522Z" fill="#BA9E66"/>
<path d="M660.174 322.37H628.238V323.511H660.174V322.37Z" fill="#BA9E66"/>
<path d="M660.174 329.207H628.238V330.348H660.174V329.207Z" fill="#BA9E66"/>
<path d="M660.174 336.055H628.238V337.196H660.174V336.055Z" fill="#BA9E66"/>
<path d="M715.009 309.722V356.692H685.159V309.722H715.009ZM716.046 308.685H684.121V357.729H716.046V308.685Z" fill="#BA9E66"/>
<path d="M714.915 341.751H685.262V342.892H714.915V341.751Z" fill="#BA9E66"/>
<path d="M714.915 345.175H685.262V346.316H714.915V345.175Z" fill="#BA9E66"/>
<path d="M701.229 308.685H700.088V342.892H701.229V308.685Z" fill="#BA9E66"/>
<path d="M709.208 308.685H708.066V342.892H709.208V308.685Z" fill="#BA9E66"/>
<path d="M693.241 308.685H692.1V342.892H693.241V308.685Z" fill="#BA9E66"/>
<path d="M546.128 301.837H544.986V353.154H546.128V301.837Z" fill="#BA9E66"/>
<path d="M552.975 315.522H551.834V353.154H552.975V315.522Z" fill="#BA9E66"/>
<path d="M533.583 301.837H532.441V360.002H533.583V301.837Z" fill="#BA9E66"/>
<path d="M742.286 301.837H741.145V353.154H742.286V301.837Z" fill="#BA9E66"/>
<path d="M735.438 315.522H734.297V353.154H735.438V315.522Z" fill="#BA9E66"/>
<path d="M754.829 301.837H753.688V360.002H754.829V301.837Z" fill="#BA9E66"/>
<path d="M716.057 315.522H684.121V316.664H716.057V315.522Z" fill="#BA9E66"/>
<path d="M716.057 322.37H684.121V323.511H716.057V322.37Z" fill="#BA9E66"/>
<path d="M716.057 329.207H684.121V330.348H716.057V329.207Z" fill="#BA9E66"/>
<path d="M716.057 336.055H684.121V337.196H716.057V336.055Z" fill="#BA9E66"/>
<path d="M461.745 382.807H460.604V432.982H461.745V382.807Z" fill="#BA9E66"/>
<path d="M481.125 389.654H469.723V390.796H481.125V389.654Z" fill="#BA9E66"/>
<path d="M481.125 396.492H469.723V397.633H481.125V396.492Z" fill="#BA9E66"/>
<path d="M481.125 403.34H469.723V404.481H481.125V403.34Z" fill="#BA9E66"/>
<path d="M481.125 410.178H469.723V411.319H481.125V410.178Z" fill="#BA9E66"/>
<path d="M481.125 417.025H469.723V418.167H481.125V417.025Z" fill="#BA9E66"/>
<path d="M481.125 423.862H469.723V425.004H481.125V423.862Z" fill="#BA9E66"/>
<path d="M475.428 382.807H474.287V432.982H475.428V382.807Z" fill="#BA9E66"/>
<path d="M468.685 383.855V431.935H467.336V383.834H468.685V383.855ZM469.723 382.797H466.299V432.972H469.723V382.797Z" fill="#BA9E66"/>
<path d="M450.34 401.058H449.199V450.092H450.34V401.058Z" fill="#BA9E66"/>
<path d="M534.725 396.492H533.584V505.974H534.725V396.492Z" fill="#BA9E66"/>
<path d="M679.66 394.116V433.096H666.909V394.116H679.66ZM680.698 393.078H665.871V434.134H680.698V393.078Z" fill="#BA9E66"/>
<path d="M622.635 394.116V433.096H609.946V394.116H622.687H622.635ZM623.724 393.078H608.908V434.134H623.724V393.078Z" fill="#BA9E66"/>
<path d="M565.622 394.116V433.096H552.881V394.116H565.633H565.622ZM566.67 393.078H551.844V434.134H566.67V393.078Z" fill="#BA9E66"/>
<path d="M644.185 257.264C647.234 257.27 650.158 258.484 652.315 260.64C654.471 262.797 655.685 265.72 655.691 268.77C655.688 271.821 654.475 274.746 652.318 276.904C650.16 279.061 647.235 280.274 644.185 280.277C641.134 280.274 638.209 279.061 636.051 276.904C633.894 274.746 632.681 271.821 632.678 268.77C632.681 265.72 633.894 262.795 636.051 260.637C638.209 258.48 641.134 257.267 644.185 257.264V257.264ZM644.185 256.227C640.858 256.227 637.667 257.548 635.315 259.901C632.962 262.253 631.641 265.444 631.641 268.77C631.641 272.097 632.962 275.288 635.315 277.64C637.667 279.993 640.858 281.314 644.185 281.314C647.511 281.314 650.702 279.993 653.054 277.64C655.407 275.288 656.728 272.097 656.728 268.77C656.728 265.444 655.407 262.253 653.054 259.901C650.702 257.548 647.511 256.227 644.185 256.227V256.227Z" fill="#BA9E66"/>
<path d="M644.186 265.253C644.648 265.253 645.106 265.344 645.532 265.521C645.959 265.698 646.347 265.957 646.673 266.284C647 266.61 647.259 266.998 647.436 267.425C647.613 267.851 647.704 268.309 647.704 268.771C647.704 269.704 647.333 270.6 646.674 271.261C646.015 271.923 645.12 272.296 644.186 272.298C643.723 272.298 643.264 272.207 642.836 272.03C642.408 271.853 642.019 271.593 641.692 271.265C641.364 270.938 641.104 270.549 640.927 270.121C640.75 269.693 640.659 269.234 640.659 268.771C640.661 267.837 641.034 266.942 641.696 266.283C642.357 265.624 643.253 265.253 644.186 265.253ZM644.186 264.216C642.977 264.216 641.818 264.695 640.962 265.549C640.106 266.403 639.624 267.562 639.621 268.771C639.621 269.981 640.102 271.143 640.958 271.999C641.814 272.855 642.976 273.336 644.186 273.336C644.785 273.336 645.378 273.218 645.932 272.988C646.485 272.759 646.988 272.422 647.411 271.998C647.834 271.574 648.169 271.071 648.397 270.517C648.626 269.963 648.743 269.37 648.741 268.771C648.741 268.173 648.623 267.58 648.394 267.028C648.165 266.475 647.83 265.973 647.407 265.55C646.984 265.127 646.482 264.791 645.929 264.563C645.377 264.334 644.784 264.216 644.186 264.216V264.216Z" fill="#BA9E66"/>
<path d="M467.439 438.595C468.07 438.595 468.675 438.845 469.123 439.29C469.57 439.736 469.822 440.34 469.825 440.971C469.825 441.604 469.574 442.211 469.126 442.658C468.679 443.106 468.072 443.357 467.439 443.357C466.808 443.355 466.204 443.102 465.758 442.655C465.313 442.208 465.063 441.602 465.063 440.971C465.066 440.342 465.317 439.739 465.762 439.294C466.207 438.849 466.81 438.598 467.439 438.595V438.595ZM467.439 437.558C466.534 437.558 465.665 437.917 465.025 438.557C464.385 439.198 464.025 440.066 464.025 440.971C464.024 441.42 464.111 441.865 464.282 442.281C464.453 442.696 464.704 443.073 465.022 443.392C465.339 443.71 465.715 443.962 466.13 444.134C466.545 444.306 466.99 444.395 467.439 444.395C468.347 444.395 469.218 444.034 469.86 443.392C470.502 442.75 470.863 441.879 470.863 440.971C470.863 440.522 470.774 440.077 470.602 439.662C470.43 439.248 470.177 438.871 469.859 438.554C469.541 438.237 469.164 437.985 468.748 437.814C468.333 437.644 467.888 437.556 467.439 437.558V437.558Z" fill="#BA9E66"/>
<path d="M527.981 383.855V449.065H503.827V383.855H527.981ZM529.018 382.817H502.789V450.102H529.018V382.817Z" fill="#BA9E66"/>
<path d="M527.888 431.852H503.941V432.993H527.888V431.852Z" fill="#BA9E66"/>
<path d="M515.344 389.654H503.941V390.796H515.344V389.654Z" fill="#BA9E66"/>
<path d="M515.344 396.492H503.941V397.633H515.344V396.492Z" fill="#BA9E66"/>
<path d="M515.344 403.34H503.941V404.481H515.344V403.34Z" fill="#BA9E66"/>
<path d="M515.344 410.178H503.941V411.319H515.344V410.178Z" fill="#BA9E66"/>
<path d="M515.344 417.025H503.941V418.167H515.344V417.025Z" fill="#BA9E66"/>
<path d="M515.344 423.862H503.941V425.004H515.344V423.862Z" fill="#BA9E66"/>
<path d="M509.637 382.807H508.496V432.982H509.637V382.807Z" fill="#BA9E66"/>
<path d="M529.028 389.654H517.625V390.796H529.028V389.654Z" fill="#BA9E66"/>
<path d="M529.028 396.492H517.625V397.633H529.028V396.492Z" fill="#BA9E66"/>
<path d="M529.028 403.34H517.625V404.481H529.028V403.34Z" fill="#BA9E66"/>
<path d="M529.028 410.178H517.625V411.319H529.028V410.178Z" fill="#BA9E66"/>
<path d="M529.028 417.025H517.625V418.167H529.028V417.025Z" fill="#BA9E66"/>
<path d="M529.028 423.862H517.625V425.004H529.028V423.862Z" fill="#BA9E66"/>
<path d="M523.321 382.807H522.18V432.982H523.321V382.807Z" fill="#BA9E66"/>
<path d="M516.567 383.855V431.935H515.229V383.834H516.567V383.855ZM517.605 382.797H514.191V432.972H517.605V382.797Z" fill="#BA9E66"/>
<path d="M515.344 438.595C515.973 438.598 516.576 438.849 517.021 439.294C517.466 439.739 517.717 440.342 517.72 440.971C517.72 441.602 517.47 442.208 517.025 442.655C516.579 443.102 515.975 443.355 515.344 443.357C514.711 443.357 514.104 443.106 513.656 442.658C513.209 442.211 512.957 441.604 512.957 440.971C512.96 440.34 513.213 439.736 513.66 439.29C514.107 438.845 514.713 438.595 515.344 438.595V438.595ZM515.344 437.558C514.895 437.556 514.45 437.644 514.034 437.814C513.619 437.985 513.241 438.237 512.923 438.554C512.605 438.871 512.353 439.248 512.181 439.662C512.009 440.077 511.92 440.522 511.92 440.971C511.92 441.879 512.281 442.75 512.923 443.392C513.565 444.034 514.436 444.395 515.344 444.395C515.793 444.395 516.238 444.306 516.652 444.134C517.067 443.962 517.444 443.71 517.761 443.392C518.078 443.073 518.33 442.696 518.5 442.281C518.671 441.865 518.759 441.42 518.757 440.971C518.757 440.066 518.398 439.198 517.758 438.557C517.117 437.917 516.249 437.558 515.344 437.558V437.558Z" fill="#BA9E66"/>
<path d="M644.185 253.851C648.142 253.854 651.936 255.426 654.735 258.223C657.534 261.02 659.109 264.814 659.115 268.771C659.109 272.729 657.535 276.523 654.736 279.322C651.937 282.121 648.143 283.696 644.185 283.701C640.226 283.698 636.43 282.125 633.63 279.325C630.831 276.526 629.257 272.73 629.254 268.771C629.26 264.814 630.835 261.02 633.634 258.223C636.433 255.426 640.228 253.854 644.185 253.851V253.851ZM644.185 252.813C642.088 252.812 640.012 253.224 638.075 254.025C636.137 254.826 634.377 256.002 632.894 257.484C631.411 258.966 630.235 260.725 629.433 262.662C628.63 264.599 628.217 266.674 628.217 268.771C628.217 270.868 628.63 272.944 629.432 274.882C630.235 276.819 631.411 278.579 632.894 280.062C634.376 281.545 636.137 282.721 638.074 283.523C640.011 284.326 642.088 284.739 644.185 284.739C646.282 284.739 648.358 284.326 650.295 283.523C652.233 282.721 653.993 281.545 655.476 280.062C656.958 278.579 658.134 276.819 658.937 274.882C659.739 272.944 660.152 270.868 660.152 268.771C660.152 266.674 659.739 264.599 658.937 262.662C658.134 260.725 656.958 258.966 655.475 257.484C653.992 256.002 652.232 254.826 650.295 254.025C648.357 253.224 646.281 252.812 644.185 252.813V252.813Z" fill="#BA9E66"/>
<path d="M549.561 391.938H531.311V393.079H549.561V391.938Z" fill="#BA9E66"/>
<path d="M549.561 372.546H531.311V373.687H549.561V372.546Z" fill="#BA9E66"/>
<path d="M548.409 396.492H532.441V397.633H548.409V396.492Z" fill="#BA9E66"/>
<path d="M450.33 401.058H442.352V402.199H450.33V401.058Z" fill="#BA9E66"/>
<path d="M452.613 397.634H442.352V398.775H452.613V397.634Z" fill="#BA9E66"/>
<path d="M762.808 366.85H523.322V367.991H762.808V366.85Z" fill="#BA9E66"/>
<path d="M755.971 369.121H530.17V370.262H755.971V369.121Z" fill="#BA9E66"/>
<path d="M766.222 361.144H519.898V362.285H766.222V361.144Z" fill="#BA9E66"/>
<path d="M758.242 297.282H527.627V298.424H758.242V297.282Z" fill="#BA9E66"/>
<path d="M567.792 309.826H544.986V310.967H567.792V309.826Z" fill="#BA9E66"/>
<path d="M567.792 315.522H544.986V316.664H567.792V315.522Z" fill="#BA9E66"/>
<path d="M570.084 250.52H556.398V251.661H570.084V250.52Z" fill="#BA9E66"/>
<path d="M567.792 255.085H558.672V256.226H567.792V255.085Z" fill="#BA9E66"/>
<path d="M572.368 244.824H554.117V245.966H572.368V244.824Z" fill="#BA9E66"/>
<path d="M742.276 309.826H719.471V310.967H742.276V309.826Z" fill="#BA9E66"/>
<path d="M742.276 315.522H719.471V316.664H742.276V315.522Z" fill="#BA9E66"/>
<path d="M624.825 309.826H608.857V310.967H624.825V309.826Z" fill="#BA9E66"/>
<path d="M624.825 315.522H608.857V316.664H624.825V315.522Z" fill="#BA9E66"/>
<path d="M679.556 309.826H663.588V310.967H679.556V309.826Z" fill="#BA9E66"/>
<path d="M679.556 315.522H663.588V316.664H679.556V315.522Z" fill="#BA9E66"/>
<path d="M761.666 291.575H524.463V292.717H761.666V291.575Z" fill="#BA9E66"/>
<path d="M532.452 281.314H397.883V282.456H532.452V281.314Z" fill="#BA9E66"/>
<path d="M890.531 281.314H755.961V282.456H890.531V281.314Z" fill="#BA9E66"/>
<path d="M532.442 345.175H444.635V346.316H532.442V345.175Z" fill="#BA9E66"/>
<path d="M522.181 363.426H448.059V364.567H522.181V363.426Z" fill="#BA9E66"/>
<path d="M526.746 370.263H448.059V371.404H526.746V370.263Z" fill="#BA9E66"/>
<path d="M801.684 395.258V431.935H792.346V395.237H801.684V395.258ZM802.722 394.199H791.309V432.972H802.722V394.199Z" fill="#BA9E66"/>
<path d="M801.684 438.595V449.064H792.346V438.595H801.684ZM802.722 437.558H791.309V450.101H802.722V437.558Z" fill="#BA9E66"/>
<path d="M802.723 375.97H801.582V388.514H802.723V375.97Z" fill="#BA9E66"/>
<path d="M793.602 375.97H792.461V388.514H793.602V375.97Z" fill="#BA9E66"/>
<path d="M800.439 389.654H794.732V390.796H800.439V389.654Z" fill="#BA9E66"/>
<path d="M811.843 378.252H801.582V379.393H811.843V378.252Z" fill="#BA9E66"/>
<path d="M792.451 378.252H782.189V379.393H792.451V378.252Z" fill="#BA9E66"/>
<path d="M766.222 378.252H755.961V379.393H766.222V378.252Z" fill="#BA9E66"/>
<path d="M839.213 378.252H828.951V379.393H839.213V378.252Z" fill="#BA9E66"/>
<path d="M832.469 383.855V449.065H808.315V383.855H832.469ZM833.506 382.817H807.277V450.102H833.506V382.817Z" fill="#BA9E66"/>
<path d="M832.364 431.852H808.418V432.993H832.364V431.852Z" fill="#BA9E66"/>
<path d="M832.364 389.654H820.961V390.796H832.364V389.654Z" fill="#BA9E66"/>
<path d="M832.364 396.492H820.961V397.633H832.364V396.492Z" fill="#BA9E66"/>
<path d="M832.364 403.34H820.961V404.481H832.364V403.34Z" fill="#BA9E66"/>
<path d="M832.364 410.178H820.961V411.319H832.364V410.178Z" fill="#BA9E66"/>
<path d="M832.364 417.025H820.961V418.167H832.364V417.025Z" fill="#BA9E66"/>
<path d="M832.364 423.862H820.961V425.004H832.364V423.862Z" fill="#BA9E66"/>
<path d="M827.809 382.807H826.668V432.982H827.809V382.807Z" fill="#BA9E66"/>
<path d="M818.69 389.654H807.287V390.796H818.69V389.654Z" fill="#BA9E66"/>
<path d="M818.69 396.492H807.287V397.633H818.69V396.492Z" fill="#BA9E66"/>
<path d="M818.69 403.34H807.287V404.481H818.69V403.34Z" fill="#BA9E66"/>
<path d="M818.69 410.178H807.287V411.319H818.69V410.178Z" fill="#BA9E66"/>
<path d="M818.69 417.025H807.287V418.167H818.69V417.025Z" fill="#BA9E66"/>
<path d="M818.69 423.862H807.287V425.004H818.69V423.862Z" fill="#BA9E66"/>
<path d="M814.126 382.807H812.984V432.982H814.126V382.807Z" fill="#BA9E66"/>
<path d="M821.065 383.855V431.935H819.727V383.834H821.065V383.855ZM822.103 382.797H818.689V432.972H822.103V382.797Z" fill="#BA9E66"/>
<path d="M820.962 438.595C821.594 438.595 822.199 438.845 822.646 439.29C823.093 439.736 823.346 440.34 823.349 440.971C823.349 441.604 823.097 442.211 822.65 442.658C822.202 443.106 821.595 443.357 820.962 443.357C820.331 443.355 819.727 443.102 819.282 442.655C818.836 442.208 818.586 441.602 818.586 440.971C818.589 440.342 818.84 439.739 819.285 439.294C819.73 438.849 820.333 438.598 820.962 438.595V438.595ZM820.962 437.558C820.057 437.558 819.189 437.917 818.549 438.557C817.908 439.198 817.549 440.066 817.549 440.971C817.547 441.42 817.635 441.865 817.806 442.281C817.977 442.696 818.228 443.073 818.545 443.392C818.862 443.71 819.239 443.962 819.654 444.134C820.069 444.306 820.513 444.395 820.962 444.395C821.87 444.395 822.741 444.034 823.384 443.392C824.026 442.75 824.386 441.879 824.386 440.971C824.386 440.522 824.298 440.077 824.125 439.662C823.953 439.248 823.701 438.871 823.383 438.554C823.065 438.237 822.687 437.985 822.272 437.814C821.857 437.644 821.412 437.556 820.962 437.558Z" fill="#BA9E66"/>
<path d="M784.576 383.855V449.065H760.391V383.855H784.545H784.576ZM785.583 382.817H759.354V450.102H785.583V382.817Z" fill="#BA9E66"/>
<path d="M784.472 431.852H760.525V432.993H784.472V431.852Z" fill="#BA9E66"/>
<path d="M784.473 389.654H773.07V390.796H784.473V389.654Z" fill="#BA9E66"/>
<path d="M784.473 396.492H773.07V397.633H784.473V396.492Z" fill="#BA9E66"/>
<path d="M784.473 403.34H773.07V404.481H784.473V403.34Z" fill="#BA9E66"/>
<path d="M784.473 410.178H773.07V411.319H784.473V410.178Z" fill="#BA9E66"/>
<path d="M784.473 417.025H773.07V418.167H784.473V417.025Z" fill="#BA9E66"/>
<path d="M784.473 423.862H773.07V425.004H784.473V423.862Z" fill="#BA9E66"/>
<path d="M779.917 382.807H778.775V432.982H779.917V382.807Z" fill="#BA9E66"/>
<path d="M770.787 389.654H759.385V390.796H770.787V389.654Z" fill="#BA9E66"/>
<path d="M770.787 396.492H759.385V397.633H770.787V396.492Z" fill="#BA9E66"/>
<path d="M770.787 403.34H759.385V404.481H770.787V403.34Z" fill="#BA9E66"/>
<path d="M770.787 410.178H759.385V411.319H770.787V410.178Z" fill="#BA9E66"/>
<path d="M770.787 417.025H759.385V418.167H770.787V417.025Z" fill="#BA9E66"/>
<path d="M770.787 423.862H759.385V425.004H770.787V423.862Z" fill="#BA9E66"/>
<path d="M766.231 382.807H765.09V432.982H766.231V382.807Z" fill="#BA9E66"/>
<path d="M773.173 383.855V431.935H771.825V383.834H773.173V383.855ZM774.211 382.797H770.787V432.972H774.211V382.797Z" fill="#BA9E66"/>
<path d="M773.068 438.595C773.699 438.595 774.305 438.845 774.752 439.29C775.199 439.736 775.452 440.34 775.455 440.971C775.455 441.604 775.203 442.211 774.756 442.658C774.308 443.106 773.701 443.357 773.068 443.357C772.435 443.357 771.828 443.106 771.381 442.658C770.933 442.211 770.682 441.604 770.682 440.971C770.685 440.34 770.937 439.736 771.385 439.29C771.832 438.845 772.437 438.595 773.068 438.595V438.595ZM773.068 437.558C772.619 437.556 772.174 437.644 771.759 437.814C771.344 437.985 770.966 438.237 770.648 438.554C770.33 438.871 770.078 439.248 769.905 439.662C769.733 440.077 769.645 440.522 769.645 440.971C769.645 441.879 770.005 442.75 770.647 443.392C771.289 444.034 772.16 444.395 773.068 444.395C773.976 444.395 774.847 444.034 775.489 443.392C776.132 442.75 776.492 441.879 776.492 440.971C776.492 440.522 776.404 440.077 776.231 439.662C776.059 439.248 775.807 438.871 775.489 438.554C775.171 438.237 774.793 437.985 774.378 437.814C773.962 437.644 773.517 437.556 773.068 437.558V437.558Z" fill="#BA9E66"/>
<path d="M843.777 345.175H753.688V346.316H843.777V345.175Z" fill="#BA9E66"/>
<path d="M840.355 363.426H766.232V364.567H840.355V363.426Z" fill="#BA9E66"/>
<path d="M840.355 370.263H759.385V371.404H840.355V370.263Z" fill="#BA9E66"/>
<path d="M741.704 353.112H719.522V301.785H680.645V351.971H663.64V301.785H624.773V351.971H607.768V302.926H567.75V353.112H544.426V352.074H566.712V301.888H608.805V350.933H623.736V300.747H664.677V350.933H679.607V300.747H720.559V352.074H741.704V353.112Z" fill="#BA9E66"/>
<path d="M598.534 274.228L597.621 273.19C596.554 272.123 595.28 271.285 593.878 270.728C592.475 270.172 590.974 269.908 589.466 269.953C584.133 269.953 582.006 273.066 581.912 273.149L581.757 273.377H555.258V272.339H581.196C581.84 271.53 584.309 268.916 589.434 268.916C592.348 268.857 595.19 269.823 597.465 271.644V270.223L595.753 268.511V264.89H601.626L607.114 270.368L614.647 262.836L611.15 259.349V253.892L620.488 263.23H622.719C622.259 262.331 622.023 261.334 622.034 260.325C622.072 259.623 622.323 258.949 622.753 258.394C623.183 257.838 623.772 257.426 624.441 257.212L620.115 252.896L623.694 249.306L628.259 253.871L635.761 246.37C635.989 245.156 637.608 238.069 644.227 238.069V239.107C637.909 239.107 636.767 246.567 636.757 246.639V246.816L628.28 255.282L623.715 250.717L621.64 252.792L626.516 257.669L625.572 257.855C625.479 257.855 623.134 258.374 623.134 260.2C623.075 261.331 623.446 262.443 624.171 263.313L625.022 264.184H620.167L612.344 256.361V258.882L616.265 262.804L607.27 271.81L601.345 265.896H596.946V267.971L598.658 269.683L598.534 274.228Z" fill="#BA9E66"/>
<path d="M688.738 274.228V269.746L690.45 268.034V265.958H686.051L680.137 271.872L671.162 262.815L675.074 258.893V256.372L667.261 264.195H662.374L663.256 263.302C663.972 262.451 664.342 261.363 664.294 260.252C664.294 258.426 661.959 257.928 661.866 257.907L660.922 257.72L665.788 252.844L663.713 250.769L659.158 255.334L650.681 246.868V246.691C650.681 246.38 649.519 239.159 643.211 239.159V238.121C649.83 238.121 651.449 245.156 651.677 246.421L659.179 253.923L663.733 249.358L667.323 252.948L662.997 257.264C663.665 257.478 664.252 257.89 664.681 258.446C665.109 259.002 665.357 259.676 665.394 260.376C665.407 261.385 665.176 262.382 664.719 263.282H666.94L676.277 253.944V259.401L672.791 262.887L680.324 270.42L685.812 264.942H691.675V268.521L689.963 270.233V271.655C692.24 269.831 695.086 268.865 698.004 268.926C703.108 268.926 705.598 271.54 706.242 272.35H732.18V273.387H705.681L705.526 273.159C705.432 273.024 703.295 269.963 697.972 269.963C696.464 269.916 694.962 270.179 693.559 270.736C692.156 271.293 690.883 272.132 689.817 273.201L688.738 274.228Z" fill="#BA9E66"/>
<path d="M662.862 387.238C661.625 383.242 659.148 379.743 655.791 377.247C652.433 374.751 648.369 373.388 644.186 373.355C640.012 373.337 635.944 374.662 632.581 377.134C629.218 379.606 626.739 383.093 625.51 387.082L624.473 386.781C625.768 382.572 628.385 378.892 631.936 376.287C635.487 373.682 639.782 372.29 644.186 372.318C648.599 372.341 652.89 373.771 656.436 376.4C659.981 379.029 662.595 382.72 663.899 386.937L662.862 387.238Z" fill="#BA9E66"/>
<path d="M605.901 386.957C604.665 382.959 602.19 379.457 598.832 376.96C595.475 374.462 591.41 373.098 587.225 373.064C583.051 373.048 578.982 374.375 575.619 376.849C572.256 379.322 569.778 382.811 568.549 386.801L567.512 386.49C568.804 382.291 571.412 378.619 574.95 376.015C578.488 373.41 582.77 372.012 587.163 372.026C591.578 372.051 595.87 373.482 599.415 376.113C602.96 378.744 605.574 382.437 606.876 386.656L605.901 386.957Z" fill="#BA9E66"/>
<path d="M600.868 393.078H573.498V394.219H600.868V393.078Z" fill="#BA9E66"/>
<path d="M586.042 398.775H573.498V399.917H586.042V398.775Z" fill="#BA9E66"/>
<path d="M586.042 404.481H573.498V405.623H586.042V404.481Z" fill="#BA9E66"/>
<path d="M586.042 410.178H573.498V411.319H586.042V410.178Z" fill="#BA9E66"/>
<path d="M586.042 415.884H573.498V417.025H586.042V415.884Z" fill="#BA9E66"/>
<path d="M586.042 421.58H573.498V422.721H586.042V421.58Z" fill="#BA9E66"/>
<path d="M586.042 427.286H573.498V428.427H586.042V427.286Z" fill="#BA9E66"/>
<path d="M580.344 393.078H579.203V434.134H580.344V393.078Z" fill="#BA9E66"/>
<path d="M600.868 398.775H588.324V399.917H600.868V398.775Z" fill="#BA9E66"/>
<path d="M600.868 404.481H588.324V405.623H600.868V404.481Z" fill="#BA9E66"/>
<path d="M600.868 410.178H588.324V411.319H600.868V410.178Z" fill="#BA9E66"/>
<path d="M600.868 415.884H588.324V417.025H600.868V415.884Z" fill="#BA9E66"/>
<path d="M600.868 421.58H588.324V422.721H600.868V421.58Z" fill="#BA9E66"/>
<path d="M600.868 427.286H588.324V428.427H600.868V427.286Z" fill="#BA9E66"/>
<path d="M588.428 394.116V433.096H585.938V394.116H588.428ZM589.466 393.078H584.9V434.134H589.466V393.078Z" fill="#BA9E66"/>
<path d="M595.173 393.078H594.031V434.134H595.173V393.078Z" fill="#BA9E66"/>
<path d="M599.831 394.116V433.096H574.536V394.116H599.831ZM600.868 393.078H573.498V434.134H600.868V393.078Z" fill="#BA9E66"/>
<path d="M600.815 393.079H599.778C599.775 389.739 598.447 386.537 596.086 384.175C593.724 381.813 590.522 380.486 587.182 380.483C583.842 380.486 580.64 381.813 578.279 384.175C575.917 386.537 574.589 389.739 574.586 393.079H573.549C573.554 389.465 574.992 386 577.548 383.444C580.103 380.889 583.568 379.451 587.182 379.445C590.797 379.448 594.263 380.885 596.819 383.441C599.376 385.998 600.813 389.464 600.815 393.079V393.079Z" fill="#BA9E66"/>
<path d="M595.359 393.079H594.321C594.319 391.187 593.565 389.374 592.227 388.038C590.889 386.701 589.075 385.951 587.183 385.951C585.294 385.953 583.482 386.705 582.146 388.041C580.81 389.377 580.058 391.189 580.055 393.079H579.018C579.02 390.914 579.882 388.838 581.412 387.308C582.943 385.777 585.018 384.916 587.183 384.913C589.349 384.916 591.425 385.777 592.958 387.307C594.49 388.838 595.353 390.913 595.359 393.079V393.079Z" fill="#BA9E66"/>
<path d="M580.412 381.866L579.549 382.441L586.766 393.267L587.629 392.691L580.412 381.866Z" fill="#BA9E66"/>
<path d="M576.087 387.091L575.623 388.02L587.029 393.721L587.493 392.793L576.087 387.091Z" fill="#BA9E66"/>
<path d="M593.971 381.961L586.754 392.787L587.617 393.363L594.834 382.537L593.971 381.961Z" fill="#BA9E66"/>
<path d="M598.286 387.134L586.881 392.838L587.345 393.766L598.75 388.062L598.286 387.134Z" fill="#BA9E66"/>
<path d="M572.315 242.925H571.278C571.278 240.062 567.667 237.738 563.237 237.738C558.806 237.738 555.196 240.062 555.196 242.925H554.158C554.158 239.491 558.236 236.7 563.237 236.7C568.238 236.7 572.315 239.491 572.315 242.925Z" fill="#BA9E66"/>
<path d="M732.014 244.824H730.873V273.336H732.014V244.824Z" fill="#BA9E66"/>
<path d="M719.47 244.824H718.328V273.336H719.47V244.824Z" fill="#BA9E66"/>
<path d="M721.753 255.085H720.611V273.335H721.753V255.085Z" fill="#BA9E66"/>
<path d="M729.741 255.085H728.6V273.335H729.741V255.085Z" fill="#BA9E66"/>
<path d="M721.753 244.824H720.611V251.662H721.753V244.824Z" fill="#BA9E66"/>
<path d="M717.188 242.541H716.047V245.965H717.188V242.541Z" fill="#BA9E66"/>
<path d="M734.296 242.541H733.154V245.965H734.296V242.541Z" fill="#BA9E66"/>
<path d="M729.741 244.824H728.6V251.662H729.741V244.824Z" fill="#BA9E66"/>
<path d="M732.013 250.52H718.328V251.661H732.013V250.52Z" fill="#BA9E66"/>
<path d="M729.731 255.085H720.611V256.226H729.731V255.085Z" fill="#BA9E66"/>
<path d="M734.297 244.824H716.047V245.966H734.297V244.824Z" fill="#BA9E66"/>
<path d="M734.306 242.925H733.269C733.269 240.041 729.637 237.738 725.176 237.738C720.715 237.738 717.073 240.083 717.073 242.925H716.035C716.035 239.47 720.185 236.7 725.176 236.7C730.167 236.7 734.306 239.47 734.306 242.925Z" fill="#BA9E66"/>
<path d="M454.908 349.74H452.625V355.447H454.908V349.74Z" fill="#BA9E66"/>
<path d="M454.908 357.719H452.625V360.001H454.908V357.719Z" fill="#BA9E66"/>
<path d="M459.46 349.74H457.178V355.447H459.46V349.74Z" fill="#BA9E66"/>
<path d="M459.46 357.719H457.178V360.001H459.46V357.719Z" fill="#BA9E66"/>
<path d="M464.027 349.74H461.744V355.447H464.027V349.74Z" fill="#BA9E66"/>
<path d="M464.027 357.719H461.744V360.001H464.027V357.719Z" fill="#BA9E66"/>
<path d="M468.581 349.74H466.299V355.447H468.581V349.74Z" fill="#BA9E66"/>
<path d="M468.581 357.719H466.299V360.001H468.581V357.719Z" fill="#BA9E66"/>
<path d="M473.146 349.74H470.863V355.447H473.146V349.74Z" fill="#BA9E66"/>
<path d="M473.146 357.719H470.863V360.001H473.146V357.719Z" fill="#BA9E66"/>
<path d="M477.712 349.74H475.43V355.447H477.712V349.74Z" fill="#BA9E66"/>
<path d="M477.712 357.719H475.43V360.001H477.712V357.719Z" fill="#BA9E66"/>
<path d="M482.267 349.74H479.984V355.447H482.267V349.74Z" fill="#BA9E66"/>
<path d="M482.267 357.719H479.984V360.001H482.267V357.719Z" fill="#BA9E66"/>
<path d="M486.831 349.74H484.549V355.447H486.831V349.74Z" fill="#BA9E66"/>
<path d="M486.831 357.719H484.549V360.001H486.831V357.719Z" fill="#BA9E66"/>
<path d="M502.798 349.74H500.516V355.447H502.798V349.74Z" fill="#BA9E66"/>
<path d="M502.798 357.719H500.516V360.001H502.798V357.719Z" fill="#BA9E66"/>
<path d="M507.365 349.74H505.082V355.447H507.365V349.74Z" fill="#BA9E66"/>
<path d="M507.365 357.719H505.082V360.001H507.365V357.719Z" fill="#BA9E66"/>
<path d="M511.919 349.74H509.637V355.447H511.919V349.74Z" fill="#BA9E66"/>
<path d="M511.919 357.719H509.637V360.001H511.919V357.719Z" fill="#BA9E66"/>
<path d="M516.484 349.74H514.201V355.447H516.484V349.74Z" fill="#BA9E66"/>
<path d="M516.484 357.719H514.201V360.001H516.484V357.719Z" fill="#BA9E66"/>
<path d="M521.04 349.74H518.758V355.447H521.04V349.74Z" fill="#BA9E66"/>
<path d="M521.04 357.719H518.758V360.001H521.04V357.719Z" fill="#BA9E66"/>
<path d="M525.605 349.74H523.322V355.447H525.605V349.74Z" fill="#BA9E66"/>
<path d="M525.605 357.719H523.322V360.001H525.605V357.719Z" fill="#BA9E66"/>
<path d="M530.169 349.74H527.887V355.447H530.169V349.74Z" fill="#BA9E66"/>
<path d="M530.169 357.719H527.887V360.001H530.169V357.719Z" fill="#BA9E66"/>
<path d="M834.658 349.74H832.375V355.447H834.658V349.74Z" fill="#BA9E66"/>
<path d="M834.658 357.719H832.375V360.001H834.658V357.719Z" fill="#BA9E66"/>
<path d="M830.093 349.74H827.811V355.447H830.093V349.74Z" fill="#BA9E66"/>
<path d="M830.093 357.719H827.811V360.001H830.093V357.719Z" fill="#BA9E66"/>
<path d="M825.527 349.74H823.244V355.447H825.527V349.74Z" fill="#BA9E66"/>
<path d="M825.527 357.719H823.244V360.001H825.527V357.719Z" fill="#BA9E66"/>
<path d="M820.972 349.74H818.689V355.447H820.972V349.74Z" fill="#BA9E66"/>
<path d="M820.972 357.719H818.689V360.001H820.972V357.719Z" fill="#BA9E66"/>
<path d="M816.408 349.74H814.125V355.447H816.408V349.74Z" fill="#BA9E66"/>
<path d="M816.408 357.719H814.125V360.001H816.408V357.719Z" fill="#BA9E66"/>
<path d="M811.841 349.74H809.559V355.447H811.841V349.74Z" fill="#BA9E66"/>
<path d="M811.841 357.719H809.559V360.001H811.841V357.719Z" fill="#BA9E66"/>
<path d="M807.288 349.74H805.006V355.447H807.288V349.74Z" fill="#BA9E66"/>
<path d="M807.288 357.719H805.006V360.001H807.288V357.719Z" fill="#BA9E66"/>
<path d="M802.722 349.74H800.439V355.447H802.722V349.74Z" fill="#BA9E66"/>
<path d="M802.722 357.719H800.439V360.001H802.722V357.719Z" fill="#BA9E66"/>
<path d="M786.755 349.74H784.473V355.447H786.755V349.74Z" fill="#BA9E66"/>
<path d="M786.755 357.719H784.473V360.001H786.755V357.719Z" fill="#BA9E66"/>
<path d="M782.199 349.74H779.916V355.447H782.199V349.74Z" fill="#BA9E66"/>
<path d="M782.199 357.719H779.916V360.001H782.199V357.719Z" fill="#BA9E66"/>
<path d="M777.634 349.74H775.352V355.447H777.634V349.74Z" fill="#BA9E66"/>
<path d="M777.634 357.719H775.352V360.001H777.634V357.719Z" fill="#BA9E66"/>
<path d="M773.07 349.74H770.787V355.447H773.07V349.74Z" fill="#BA9E66"/>
<path d="M773.07 357.719H770.787V360.001H773.07V357.719Z" fill="#BA9E66"/>
<path d="M768.515 349.74H766.232V355.447H768.515V349.74Z" fill="#BA9E66"/>
<path d="M768.515 357.719H766.232V360.001H768.515V357.719Z" fill="#BA9E66"/>
<path d="M763.949 349.74H761.666V355.447H763.949V349.74Z" fill="#BA9E66"/>
<path d="M763.949 357.719H761.666V360.001H763.949V357.719Z" fill="#BA9E66"/>
<path d="M759.384 349.74H757.102V355.447H759.384V349.74Z" fill="#BA9E66"/>
<path d="M759.384 357.719H757.102V360.001H759.384V357.719Z" fill="#BA9E66"/>
<path d="M657.892 393.078H630.521V394.219H657.892V393.078Z" fill="#BA9E66"/>
<path d="M643.065 398.775H630.521V399.917H643.065V398.775Z" fill="#BA9E66"/>
<path d="M643.065 404.481H630.521V405.623H643.065V404.481Z" fill="#BA9E66"/>
<path d="M643.065 410.178H630.521V411.319H643.065V410.178Z" fill="#BA9E66"/>
<path d="M643.065 415.884H630.521V417.025H643.065V415.884Z" fill="#BA9E66"/>
<path d="M643.065 421.58H630.521V422.721H643.065V421.58Z" fill="#BA9E66"/>
<path d="M643.065 427.286H630.521V428.427H643.065V427.286Z" fill="#BA9E66"/>
<path d="M637.368 393.078H636.227V434.134H637.368V393.078Z" fill="#BA9E66"/>
<path d="M657.892 398.775H645.348V399.917H657.892V398.775Z" fill="#BA9E66"/>
<path d="M657.892 404.481H645.348V405.623H657.892V404.481Z" fill="#BA9E66"/>
<path d="M657.892 410.178H645.348V411.319H657.892V410.178Z" fill="#BA9E66"/>
<path d="M657.892 415.884H645.348V417.025H657.892V415.884Z" fill="#BA9E66"/>
<path d="M657.892 421.58H645.348V422.721H657.892V421.58Z" fill="#BA9E66"/>
<path d="M657.892 427.286H645.348V428.427H657.892V427.286Z" fill="#BA9E66"/>
<path d="M645.452 394.116V433.096H642.961V394.116H645.452ZM646.489 393.078H641.924V434.134H646.489V393.078Z" fill="#BA9E66"/>
<path d="M652.184 393.078H651.043V434.134H652.184V393.078Z" fill="#BA9E66"/>
<path d="M656.854 394.116V433.096H631.559V394.116H656.854ZM657.892 393.078H630.521V434.134H657.892V393.078Z" fill="#BA9E66"/>
<path d="M657.839 393.079H656.801C656.799 389.739 655.471 386.537 653.109 384.175C650.748 381.813 647.545 380.486 644.206 380.483C640.866 380.486 637.664 381.813 635.302 384.175C632.94 386.537 631.613 389.739 631.61 393.079H630.572C630.575 389.464 632.012 385.998 634.568 383.441C637.125 380.885 640.591 379.448 644.206 379.445C647.82 379.451 651.284 380.889 653.84 383.444C656.395 386 657.833 389.465 657.839 393.079V393.079Z" fill="#BA9E66"/>
<path d="M652.372 393.079H651.334C651.332 391.189 650.58 389.377 649.244 388.041C647.907 386.705 646.096 385.953 644.206 385.951C642.317 385.953 640.505 386.705 639.169 388.041C637.833 389.377 637.081 391.189 637.079 393.079H636.041C636.044 390.914 636.905 388.838 638.436 387.308C639.966 385.777 642.042 384.916 644.206 384.913C646.371 384.916 648.447 385.777 649.977 387.308C651.508 388.838 652.369 390.914 652.372 393.079V393.079Z" fill="#BA9E66"/>
<path d="M637.436 381.87L636.572 382.445L643.789 393.271L644.653 392.695L637.436 381.87Z" fill="#BA9E66"/>
<path d="M633.101 387.091L632.637 388.019L644.042 393.72L644.506 392.792L633.101 387.091Z" fill="#BA9E66"/>
<path d="M650.991 381.961L643.773 392.787L644.637 393.363L651.854 382.537L650.991 381.961Z" fill="#BA9E66"/>
<path d="M655.303 387.13L643.898 392.834L644.363 393.762L655.767 388.058L655.303 387.13Z" fill="#BA9E66"/>
<path d="M714.915 393.078H687.545V394.219H714.915V393.078Z" fill="#BA9E66"/>
<path d="M700.089 398.775H687.545V399.917H700.089V398.775Z" fill="#BA9E66"/>
<path d="M700.089 404.481H687.545V405.623H700.089V404.481Z" fill="#BA9E66"/>
<path d="M700.089 410.178H687.545V411.319H700.089V410.178Z" fill="#BA9E66"/>
<path d="M700.089 415.884H687.545V417.025H700.089V415.884Z" fill="#BA9E66"/>
<path d="M700.089 421.58H687.545V422.721H700.089V421.58Z" fill="#BA9E66"/>
<path d="M700.089 427.286H687.545V428.427H700.089V427.286Z" fill="#BA9E66"/>
<path d="M694.382 393.078H693.24V434.134H694.382V393.078Z" fill="#BA9E66"/>
<path d="M714.915 398.775H702.371V399.917H714.915V398.775Z" fill="#BA9E66"/>
<path d="M714.915 404.481H702.371V405.623H714.915V404.481Z" fill="#BA9E66"/>
<path d="M714.915 410.178H702.371V411.319H714.915V410.178Z" fill="#BA9E66"/>
<path d="M714.915 415.884H702.371V417.025H714.915V415.884Z" fill="#BA9E66"/>
<path d="M714.915 421.58H702.371V422.721H714.915V421.58Z" fill="#BA9E66"/>
<path d="M714.915 427.286H702.371V428.427H714.915V427.286Z" fill="#BA9E66"/>
<path d="M702.465 394.116V433.096H699.985V394.116H702.465ZM703.502 393.078H698.947V434.134H703.502V393.078Z" fill="#BA9E66"/>
<path d="M709.208 393.078H708.066V434.134H709.208V393.078Z" fill="#BA9E66"/>
<path d="M713.867 394.116V433.096H688.582V394.116H713.867ZM714.905 393.078H687.545V434.134H714.905V393.078Z" fill="#BA9E66"/>
<path d="M714.863 393.079H713.825C713.823 389.739 712.495 386.537 710.133 384.175C707.772 381.813 704.569 380.486 701.23 380.483C697.888 380.483 694.683 381.81 692.319 384.171C689.956 386.533 688.626 389.737 688.623 393.079H687.586C687.591 389.463 689.031 385.997 691.589 383.441C694.147 380.885 697.614 379.448 701.23 379.445C704.844 379.451 708.308 380.889 710.864 383.444C713.419 386 714.858 389.465 714.863 393.079V393.079Z" fill="#BA9E66"/>
<path d="M709.394 393.079H708.357C708.354 391.189 707.602 389.377 706.266 388.041C704.93 386.705 703.118 385.953 701.229 385.951C699.337 385.951 697.523 386.701 696.185 388.038C694.846 389.374 694.093 391.187 694.09 393.079H693.053C693.055 390.912 693.918 388.835 695.451 387.304C696.984 385.773 699.062 384.913 701.229 384.913C703.393 384.916 705.469 385.777 706.999 387.308C708.53 388.838 709.391 390.914 709.394 393.079V393.079Z" fill="#BA9E66"/>
<path d="M694.459 381.873L693.596 382.448L700.813 393.274L701.676 392.698L694.459 381.873Z" fill="#BA9E66"/>
<path d="M689.984 386.685L689.52 387.613L700.924 393.317L701.388 392.389L689.984 386.685Z" fill="#BA9E66"/>
<path d="M708.004 381.961L700.787 392.786L701.65 393.362L708.867 382.536L708.004 381.961Z" fill="#BA9E66"/>
<path d="M712.323 387.127L700.918 392.831L701.382 393.759L712.787 388.055L712.323 387.127Z" fill="#BA9E66"/>
<path d="M475.428 294.584H474.287V310.697H475.428V294.584Z" fill="#BA9E66"/>
<path d="M474.858 295.062C478.375 295.062 481.228 298.403 481.228 302.501C481.228 306.599 478.375 309.93 474.858 309.93C471.341 309.93 468.477 306.599 468.477 302.501C468.477 298.403 471.341 295.062 474.858 295.062ZM474.858 294.024C470.708 294.024 467.439 297.822 467.439 302.501C467.439 307.181 470.76 310.968 474.858 310.968C478.956 310.968 482.266 307.181 482.266 302.501C482.266 297.822 478.946 294.024 474.858 294.024Z" fill="#BA9E66"/>
<path d="M474.858 290.497C480.575 290.497 485.234 295.881 485.234 302.501C485.234 309.12 480.586 314.495 474.858 314.495C469.131 314.495 464.483 309.11 464.483 302.501C464.483 295.892 469.131 290.497 474.858 290.497ZM474.858 289.459C468.56 289.459 463.445 295.3 463.445 302.501C463.445 309.701 468.55 315.532 474.858 315.532C481.167 315.532 486.271 309.691 486.271 302.501C486.271 295.311 481.167 289.459 474.858 289.459Z" fill="#BA9E66"/>
<path d="M474.858 320.606C470.033 320.606 468.747 318.147 468.633 318.043L469.567 317.576C469.567 317.659 470.666 319.568 474.754 319.568C477.093 319.687 479.395 318.949 481.228 317.493L481.965 318.23C479.971 319.873 477.439 320.72 474.858 320.606V320.606Z" fill="#BA9E66"/>
<path d="M462.314 320.035H461.795V307.585H465.157V308.623H462.832V318.946C463.351 318.806 463.836 318.561 464.255 318.225C464.675 317.89 465.021 317.471 465.271 316.995L465.416 316.715H468.01V317.753H466.028C465.65 318.414 465.112 318.97 464.462 319.369C463.813 319.768 463.075 319.997 462.314 320.035V320.035Z" fill="#BA9E66"/>
<path d="M489.063 320.036H488.544C487.783 319.998 487.044 319.77 486.393 319.373C485.742 318.977 485.201 318.423 484.82 317.764H482.838V316.726H485.442L485.587 317.006C485.841 317.479 486.188 317.896 486.607 318.231C487.026 318.566 487.509 318.813 488.026 318.957V308.633H484.539V307.596H489.063V320.036Z" fill="#BA9E66"/>
<path d="M485.484 298.216L484.758 297.479L488.026 294.211V290.382H485.121V289.345H489.064V294.647L485.484 298.216Z" fill="#BA9E66"/>
<path d="M464.223 298.216L460.654 294.647V289.345H464.597V290.382H461.692V294.211L464.96 297.479L464.223 298.216Z" fill="#BA9E66"/>
<path d="M465.303 292.385L464.338 292.012C466.174 287.28 470.304 284.22 474.859 284.22C479.413 284.22 483.46 287.229 485.327 291.877L484.362 292.261C482.65 288.007 478.926 285.257 474.859 285.257C470.791 285.257 466.984 288.059 465.303 292.385Z" fill="#BA9E66"/>
<path d="M428.667 294.584H427.525V310.697H428.667V294.584Z" fill="#BA9E66"/>
<path d="M428.095 295.062C431.613 295.062 434.476 298.403 434.476 302.501C434.476 306.599 431.613 309.93 428.095 309.93C424.578 309.93 421.725 306.599 421.725 302.501C421.725 298.403 424.578 295.062 428.095 295.062ZM428.095 294.024C424.008 294.024 420.688 297.822 420.688 302.501C420.688 307.181 424.008 310.968 428.095 310.968C432.183 310.968 435.514 307.181 435.514 302.501C435.514 297.822 432.194 294.024 428.095 294.024Z" fill="#BA9E66"/>
<path d="M428.097 290.497C433.813 290.497 438.472 295.881 438.472 302.501C438.472 309.12 433.824 314.495 428.097 314.495C422.369 314.495 417.721 309.11 417.721 302.501C417.721 295.892 422.369 290.497 428.097 290.497ZM428.097 289.459C421.799 289.459 416.684 295.3 416.684 302.501C416.684 309.701 421.788 315.532 428.097 315.532C434.405 315.532 439.51 309.691 439.51 302.501C439.51 295.311 434.405 289.459 428.097 289.459Z" fill="#BA9E66"/>
<path d="M428.097 320.606C423.272 320.606 421.985 318.147 421.934 318.043L422.857 317.576C422.857 317.659 423.967 319.568 428.097 319.568C430.438 319.686 432.743 318.948 434.581 317.493L435.307 318.23C433.29 319.904 430.714 320.753 428.097 320.606Z" fill="#BA9E66"/>
<path d="M415.552 320.035H415.033V307.585H418.405V308.623H416.071V318.946C416.59 318.806 417.074 318.561 417.494 318.225C417.913 317.89 418.259 317.471 418.509 316.995L418.654 316.715H421.258V317.753H419.277C418.896 318.414 418.356 318.97 417.705 319.369C417.055 319.767 416.314 319.997 415.552 320.035V320.035Z" fill="#BA9E66"/>
<path d="M442.301 320.036H441.782C441.022 319.998 440.284 319.771 439.635 319.374C438.986 318.977 438.447 318.423 438.068 317.764H436.086V316.726H438.68L438.825 317.006C439.079 317.479 439.425 317.896 439.845 318.231C440.264 318.566 440.746 318.813 441.263 318.957V308.633H437.788V307.596H442.301V320.036Z" fill="#BA9E66"/>
<path d="M438.731 298.216L437.994 297.479L441.262 294.211V290.382H438.368V289.345H442.3V294.647L438.731 298.216Z" fill="#BA9E66"/>
<path d="M417.472 298.216L413.893 294.647V289.345H417.835V290.382H414.93V294.211L418.209 297.479L417.472 298.216Z" fill="#BA9E66"/>
<path d="M418.539 292.385L417.574 292.012C419.411 287.28 423.54 284.22 428.095 284.22C432.65 284.22 436.707 287.229 438.564 291.877L437.599 292.261C435.897 288.007 432.172 285.257 428.095 285.257C424.017 285.257 420.23 288.059 418.539 292.385Z" fill="#BA9E66"/>
<path d="M811.842 294.584H810.701V310.697H811.842V294.584Z" fill="#BA9E66"/>
<path d="M811.23 295.062C814.748 295.062 817.611 298.403 817.611 302.501C817.611 306.599 814.748 309.93 811.23 309.93C807.713 309.93 804.86 306.599 804.86 302.501C804.86 298.403 807.713 295.062 811.23 295.062ZM811.23 294.024C807.142 294.024 803.822 297.822 803.822 302.501C803.822 307.181 807.142 310.968 811.23 310.968C815.318 310.968 818.649 307.181 818.649 302.501C818.649 297.822 815.329 294.024 811.23 294.024Z" fill="#BA9E66"/>
<path d="M811.229 290.497C816.946 290.497 821.605 295.881 821.605 302.501C821.605 309.12 816.957 314.495 811.229 314.495C805.502 314.495 800.854 309.11 800.854 302.501C800.854 295.892 805.502 290.497 811.229 290.497ZM811.229 289.459C804.931 289.459 799.816 295.3 799.816 302.501C799.816 309.701 804.921 315.532 811.229 315.532C817.538 315.532 822.642 309.691 822.642 302.501C822.642 295.311 817.538 289.459 811.229 289.459Z" fill="#BA9E66"/>
<path d="M811.229 320.606C806.405 320.606 805.118 318.147 805.066 318.043L805.99 317.576C805.99 317.659 807.1 319.568 811.177 319.568C813.516 319.687 815.818 318.949 817.652 317.493L818.388 318.23C816.381 319.886 813.828 320.733 811.229 320.606V320.606Z" fill="#BA9E66"/>
<path d="M798.78 320.035H798.262V307.585H801.634V308.623H799.299V318.946C799.818 318.806 800.303 318.561 800.722 318.225C801.142 317.89 801.487 317.471 801.737 316.995L801.883 316.715H804.487V317.753H802.505C802.123 318.413 801.582 318.968 800.932 319.366C800.282 319.765 799.542 319.995 798.78 320.035V320.035Z" fill="#BA9E66"/>
<path d="M825.477 320.036H824.958C824.198 319.998 823.46 319.771 822.811 319.374C822.162 318.977 821.623 318.423 821.243 317.764H819.262V316.726H821.856L822.001 317.006C822.254 317.479 822.601 317.896 823.02 318.231C823.439 318.566 823.922 318.813 824.439 318.957V308.633H820.963V307.596H825.477V320.036Z" fill="#BA9E66"/>
<path d="M821.907 298.216L821.17 297.479L824.438 294.211V290.382H821.533V289.345H825.476V294.647L821.907 298.216Z" fill="#BA9E66"/>
<path d="M800.648 298.216L797.068 294.647V289.345H801.011V290.382H798.106V294.211L801.374 297.479L800.648 298.216Z" fill="#BA9E66"/>
<path d="M801.715 292.385L800.75 292.012C802.586 287.28 806.716 284.22 811.271 284.22C815.826 284.22 819.872 287.229 821.74 291.877L820.775 292.261C819.073 288.007 815.338 285.257 811.271 285.257C807.204 285.257 803.396 288.059 801.715 292.385Z" fill="#BA9E66"/>
<path d="M858.604 294.584H857.463V310.697H858.604V294.584Z" fill="#BA9E66"/>
<path d="M858.034 295.062C861.541 295.062 864.404 298.403 864.404 302.501C864.404 306.599 861.541 309.93 858.034 309.93C854.527 309.93 851.653 306.599 851.653 302.501C851.653 298.403 854.516 295.062 858.034 295.062ZM858.034 294.024C853.935 294.024 850.615 297.822 850.615 302.501C850.615 307.181 853.935 310.968 858.034 310.968C862.132 310.968 865.442 307.181 865.442 302.501C865.442 297.822 862.122 294.024 858.034 294.024Z" fill="#BA9E66"/>
<path d="M858.034 290.497C863.741 290.497 868.41 295.881 868.41 302.501C868.41 309.12 863.751 314.495 858.034 314.495C852.317 314.495 847.659 309.11 847.659 302.501C847.659 295.892 852.317 290.497 858.034 290.497ZM858.034 289.459C851.736 289.459 846.621 295.3 846.621 302.501C846.621 309.701 851.736 315.532 858.034 315.532C864.332 315.532 869.447 309.691 869.447 302.501C869.447 295.311 864.342 289.459 858.034 289.459Z" fill="#BA9E66"/>
<path d="M858.035 320.606C853.2 320.606 851.913 318.147 851.861 318.043L852.785 317.576C852.785 317.659 853.895 319.568 858.035 319.568C860.373 319.687 862.675 318.949 864.509 317.493L865.235 318.23C865.183 318.282 862.755 320.606 858.035 320.606Z" fill="#BA9E66"/>
<path d="M845.47 320.035H844.951V307.585H848.313V308.623H845.989V318.946C846.508 318.806 846.992 318.561 847.412 318.225C847.831 317.89 848.177 317.471 848.427 316.995L848.562 316.715H851.166V317.753H849.184C848.806 318.414 848.268 318.97 847.619 319.369C846.97 319.768 846.231 319.997 845.47 320.035V320.035Z" fill="#BA9E66"/>
<path d="M872.237 320.036H871.718C870.957 319.999 870.217 319.772 869.566 319.375C868.915 318.978 868.374 318.424 867.993 317.764H866.012V316.726H868.616L868.751 317.006C869.006 317.48 869.354 317.898 869.775 318.233C870.196 318.568 870.68 318.814 871.199 318.957V308.633H867.713V307.596H872.237V320.036Z" fill="#BA9E66"/>
<path d="M868.658 298.216L867.932 297.479L871.2 294.211V290.382H868.295V289.345H872.237V294.647L868.658 298.216Z" fill="#BA9E66"/>
<path d="M847.399 298.216L843.83 294.647V289.345H847.762V290.382H844.868V294.211L848.136 297.479L847.399 298.216Z" fill="#BA9E66"/>
<path d="M848.477 292.385L847.502 292.012C849.349 287.28 853.478 284.22 858.033 284.22C862.588 284.22 866.634 287.229 868.491 291.877L867.537 292.261C865.825 288.007 862.1 285.257 858.033 285.257C853.966 285.257 850.158 288.059 848.477 292.385Z" fill="#BA9E66"/>
<path d="M719.926 387.237C718.689 383.241 716.213 379.742 712.855 377.247C709.498 374.751 705.434 373.388 701.25 373.355C697.077 373.337 693.008 374.662 689.645 377.134C686.282 379.605 683.803 383.093 682.575 387.082L681.537 386.781C682.827 382.58 685.433 378.906 688.972 376.301C692.511 373.697 696.794 372.3 701.188 372.318C705.602 372.341 709.893 373.771 713.438 376.4C716.983 379.029 719.597 382.72 720.901 386.937L719.926 387.237Z" fill="#BA9E66"/>
<path d="M783.445 270.285C780.901 270.381 778.405 269.573 776.401 268.002H771.099C769.094 269.573 766.598 270.381 764.054 270.285C759.229 270.285 757.943 267.826 757.891 267.722L758.814 267.245C758.814 267.328 759.924 269.247 764.002 269.247C766.344 269.367 768.649 268.63 770.486 267.172L770.632 267.017H776.764L776.919 267.172C778.753 268.628 781.055 269.366 783.394 269.247C785.732 269.366 788.034 268.628 789.868 267.172L790.604 267.898C788.6 269.56 786.046 270.411 783.445 270.285V270.285Z" fill="#BA9E66"/>
<path d="M826.555 270.285C824.011 270.379 821.515 269.57 819.51 268.002H814.218C812.213 269.57 809.717 270.379 807.173 270.285C802.349 270.285 801.062 267.826 801 267.722L801.934 267.255L801.467 267.483L801.934 267.245C801.934 267.328 803.034 269.247 807.122 269.247C809.46 269.366 811.762 268.628 813.596 267.172L813.751 267.017H819.873L820.029 267.172C821.862 268.628 824.164 269.366 826.503 269.247C828.842 269.369 831.144 268.631 832.977 267.172L833.714 267.898C831.709 269.56 829.155 270.411 826.555 270.285Z" fill="#BA9E66"/>
<path d="M802.38 270.566C801.478 267.266 798.863 265.046 795.854 265.046C792.845 265.046 790.241 267.256 789.338 270.555L788.301 270.275C789.338 266.53 792.347 264.05 795.813 264.05C799.278 264.05 802.318 266.571 803.335 270.337L802.38 270.566Z" fill="#BA9E66"/>
<path d="M803.967 266.862C803.191 265.369 802.029 264.112 800.602 263.221C799.175 262.33 797.535 261.839 795.853 261.798C794.256 261.836 792.695 262.284 791.32 263.098C789.945 263.912 788.801 265.065 787.999 266.447L787.117 265.897C788.006 264.355 789.277 263.069 790.807 262.16C792.337 261.252 794.075 260.752 795.853 260.709C797.72 260.744 799.543 261.281 801.13 262.266C802.717 263.25 804.009 264.644 804.87 266.301L803.967 266.862Z" fill="#BA9E66"/>
<path d="M478.978 270.285C476.434 270.379 473.938 269.57 471.933 268.002H466.641C464.635 269.569 462.14 270.377 459.596 270.285C454.772 270.285 453.475 267.826 453.371 267.722L454.305 267.255L453.838 267.483L454.305 267.245C454.305 267.328 455.405 269.247 459.493 269.247C461.831 269.366 464.133 268.628 465.967 267.172L466.122 267.017H472.244L472.4 267.172C474.234 268.628 476.535 269.366 478.874 269.247C481.213 269.369 483.516 268.631 485.348 267.172L486.085 267.898C484.093 269.548 481.561 270.398 478.978 270.285V270.285Z" fill="#BA9E66"/>
<path d="M522.098 270.285C519.553 270.381 517.057 269.573 515.053 268.002H509.751C507.745 269.57 505.25 270.379 502.706 270.285C497.881 270.285 496.595 267.826 496.543 267.722L497.466 267.245C497.466 267.328 498.566 269.247 502.706 269.247C505.045 269.366 507.346 268.628 509.18 267.172L509.336 267.017H515.468L515.613 267.172C517.45 268.63 519.756 269.367 522.098 269.247C524.436 269.366 526.738 268.628 528.572 267.172L529.298 267.898C527.285 269.574 524.713 270.427 522.098 270.285V270.285Z" fill="#BA9E66"/>
<path d="M497.891 270.566C496.989 267.266 494.374 265.046 491.365 265.046C489.824 265.115 488.35 265.694 487.173 266.691C485.995 267.687 485.182 269.047 484.86 270.555L483.822 270.275C484.86 266.53 487.869 264.05 491.334 264.05C494.8 264.05 497.84 266.571 498.856 270.337L497.891 270.566Z" fill="#BA9E66"/>
<path d="M499.5 266.862C498.724 265.369 497.562 264.112 496.135 263.221C494.708 262.33 493.068 261.839 491.386 261.798C489.789 261.836 488.228 262.284 486.853 263.098C485.478 263.912 484.334 265.065 483.532 266.447L482.65 265.897C483.54 264.355 484.81 263.069 486.34 262.16C487.87 261.252 489.608 260.752 491.386 260.709C493.253 260.744 495.077 261.281 496.663 262.266C498.25 263.25 499.542 264.644 500.403 266.301L499.5 266.862Z" fill="#BA9E66"/>
<path d="M847.005 362.637L846.248 361.921L883.319 322.982H1054.37L1076.41 310.449H1096.05L1185.61 263.998H1417.23V265.036H1185.86L1096.31 311.486H1076.68L1054.65 324.02H883.766L847.005 362.637Z" fill="#BA9E66"/>
<path d="M841.475 373.22H840.438V523.259H841.475V373.22Z" fill="#BA9E66"/>
<path d="M891.049 366.85H890.012V495.713H891.049V366.85Z" fill="#BA9E66"/>
<path d="M911.084 366.85H910.047V495.713H911.084V366.85Z" fill="#BA9E66"/>
<path d="M1051.65 294.065H888.744V295.103H1051.65V294.065Z" fill="#BA9E66"/>
<path d="M909.422 307.595H888.744V308.632H909.422V307.595Z" fill="#BA9E66"/>
<path d="M938.495 307.595H924.695V308.632H938.495V307.595Z" fill="#BA9E66"/>
<path d="M1027.97 307.595H1014.17V308.632H1027.97V307.595Z" fill="#BA9E66"/>
<path d="M909.422 310.169H888.744V311.206H909.422V310.169Z" fill="#BA9E66"/>
<path d="M938.495 310.169H924.695V311.206H938.495V310.169Z" fill="#BA9E66"/>
<path d="M1027.97 310.169H1014.17V311.206H1027.97V310.169Z" fill="#BA9E66"/>
<path d="M920.941 297.5H918.658V303.206H920.941V297.5Z" fill="#BA9E66"/>
<path d="M920.941 305.489H918.658V307.772H920.941V305.489Z" fill="#BA9E66"/>
<path d="M916.384 297.5H914.102V303.206H916.384V297.5Z" fill="#BA9E66"/>
<path d="M916.384 305.489H914.102V307.772H916.384V305.489Z" fill="#BA9E66"/>
<path d="M1037.39 297.5H1035.11V303.206H1037.39V297.5Z" fill="#BA9E66"/>
<path d="M1037.39 305.489H1035.11V307.772H1037.39V305.489Z" fill="#BA9E66"/>
<path d="M1032.83 297.5H1030.55V303.206H1032.83V297.5Z" fill="#BA9E66"/>
<path d="M1032.83 305.489H1030.55V307.772H1032.83V305.489Z" fill="#BA9E66"/>
<path d="M947.169 297.5H944.887V303.206H947.169V297.5Z" fill="#BA9E66"/>
<path d="M947.169 305.489H944.887V307.772H947.169V305.489Z" fill="#BA9E66"/>
<path d="M942.605 297.5H940.322V303.206H942.605V297.5Z" fill="#BA9E66"/>
<path d="M942.605 305.489H940.322V307.772H942.605V305.489Z" fill="#BA9E66"/>
<path d="M951.724 297.5H949.441V303.206H951.724V297.5Z" fill="#BA9E66"/>
<path d="M951.724 305.489H949.441V307.772H951.724V305.489Z" fill="#BA9E66"/>
<path d="M947.169 297.5H944.887V303.206H947.169V297.5Z" fill="#BA9E66"/>
<path d="M947.169 305.489H944.887V307.772H947.169V305.489Z" fill="#BA9E66"/>
<path d="M956.289 297.5H954.006V303.206H956.289V297.5Z" fill="#BA9E66"/>
<path d="M956.289 305.489H954.006V307.772H956.289V305.489Z" fill="#BA9E66"/>
<path d="M951.724 297.5H949.441V303.206H951.724V297.5Z" fill="#BA9E66"/>
<path d="M951.724 305.489H949.441V307.772H951.724V305.489Z" fill="#BA9E66"/>
<path d="M960.855 297.5H958.572V303.206H960.855V297.5Z" fill="#BA9E66"/>
<path d="M960.855 305.489H958.572V307.772H960.855V305.489Z" fill="#BA9E66"/>
<path d="M956.289 297.5H954.006V303.206H956.289V297.5Z" fill="#BA9E66"/>
<path d="M956.289 305.489H954.006V307.772H956.289V305.489Z" fill="#BA9E66"/>
<path d="M965.409 297.5H963.127V303.206H965.409V297.5Z" fill="#BA9E66"/>
<path d="M965.409 305.489H963.127V307.772H965.409V305.489Z" fill="#BA9E66"/>
<path d="M960.855 297.5H958.572V303.206H960.855V297.5Z" fill="#BA9E66"/>
<path d="M960.855 305.489H958.572V307.772H960.855V305.489Z" fill="#BA9E66"/>
<path d="M969.974 297.5H967.691V303.206H969.974V297.5Z" fill="#BA9E66"/>
<path d="M969.974 305.489H967.691V307.772H969.974V305.489Z" fill="#BA9E66"/>
<path d="M965.409 297.5H963.127V303.206H965.409V297.5Z" fill="#BA9E66"/>
<path d="M965.409 305.489H963.127V307.772H965.409V305.489Z" fill="#BA9E66"/>
<path d="M974.54 297.5H972.258V303.206H974.54V297.5Z" fill="#BA9E66"/>
<path d="M974.54 305.489H972.258V307.772H974.54V305.489Z" fill="#BA9E66"/>
<path d="M969.974 297.5H967.691V303.206H969.974V297.5Z" fill="#BA9E66"/>
<path d="M969.974 305.489H967.691V307.772H969.974V305.489Z" fill="#BA9E66"/>
<path d="M979.095 297.5H976.812V303.206H979.095V297.5Z" fill="#BA9E66"/>
<path d="M979.095 305.489H976.812V307.772H979.095V305.489Z" fill="#BA9E66"/>
<path d="M974.54 297.5H972.258V303.206H974.54V297.5Z" fill="#BA9E66"/>
<path d="M974.54 305.489H972.258V307.772H974.54V305.489Z" fill="#BA9E66"/>
<path d="M983.659 297.5H981.377V303.206H983.659V297.5Z" fill="#BA9E66"/>
<path d="M983.659 305.489H981.377V307.772H983.659V305.489Z" fill="#BA9E66"/>
<path d="M979.095 297.5H976.812V303.206H979.095V297.5Z" fill="#BA9E66"/>
<path d="M979.095 305.489H976.812V307.772H979.095V305.489Z" fill="#BA9E66"/>
<path d="M988.226 297.5H985.943V303.206H988.226V297.5Z" fill="#BA9E66"/>
<path d="M988.226 305.489H985.943V307.772H988.226V305.489Z" fill="#BA9E66"/>
<path d="M983.659 297.5H981.377V303.206H983.659V297.5Z" fill="#BA9E66"/>
<path d="M983.659 305.489H981.377V307.772H983.659V305.489Z" fill="#BA9E66"/>
<path d="M992.781 297.5H990.498V303.206H992.781V297.5Z" fill="#BA9E66"/>
<path d="M992.781 305.489H990.498V307.772H992.781V305.489Z" fill="#BA9E66"/>
<path d="M988.226 297.5H985.943V303.206H988.226V297.5Z" fill="#BA9E66"/>
<path d="M988.226 305.489H985.943V307.772H988.226V305.489Z" fill="#BA9E66"/>
<path d="M997.345 297.5H995.062V303.206H997.345V297.5Z" fill="#BA9E66"/>
<path d="M997.345 305.489H995.062V307.772H997.345V305.489Z" fill="#BA9E66"/>
<path d="M992.781 297.5H990.498V303.206H992.781V297.5Z" fill="#BA9E66"/>
<path d="M992.781 305.489H990.498V307.772H992.781V305.489Z" fill="#BA9E66"/>
<path d="M1001.91 297.5H999.627V303.206H1001.91V297.5Z" fill="#BA9E66"/>
<path d="M1001.91 305.489H999.627V307.772H1001.91V305.489Z" fill="#BA9E66"/>
<path d="M997.345 297.5H995.062V303.206H997.345V297.5Z" fill="#BA9E66"/>
<path d="M997.345 305.489H995.062V307.772H997.345V305.489Z" fill="#BA9E66"/>
<path d="M1006.46 297.5H1004.18V303.206H1006.46V297.5Z" fill="#BA9E66"/>
<path d="M1006.46 305.489H1004.18V307.772H1006.46V305.489Z" fill="#BA9E66"/>
<path d="M1001.91 297.5H999.627V303.206H1001.91V297.5Z" fill="#BA9E66"/>
<path d="M1001.91 305.489H999.627V307.772H1001.91V305.489Z" fill="#BA9E66"/>
<path d="M1011.03 297.5H1008.75V303.206H1011.03V297.5Z" fill="#BA9E66"/>
<path d="M1011.03 305.489H1008.75V307.772H1011.03V305.489Z" fill="#BA9E66"/>
<path d="M1006.46 297.5H1004.18V303.206H1006.46V297.5Z" fill="#BA9E66"/>
<path d="M1006.46 305.489H1004.18V307.772H1006.46V305.489Z" fill="#BA9E66"/>
<path d="M894.772 279.198L893.994 278.513L964.039 198.259H1111.09L1140.51 178.421H1176.78L1262.65 117.061H1494.12V118.098H1262.99L1177.11 179.458H1140.83L1111.4 199.296H964.506L894.772 279.198Z" fill="#BA9E66"/>
<path d="M1110.37 202.814L1069.88 284.716L1070.81 285.176L1111.31 203.274L1110.37 202.814Z" fill="#BA9E66"/>
<path d="M1140.44 192.753L1106.26 269.666L1107.21 270.087L1141.39 193.174L1140.44 192.753Z" fill="#BA9E66"/>
<path d="M1141.43 182.011H1140.39V190.031H1141.43V182.011Z" fill="#BA9E66"/>
<path d="M992.094 343.941V405.83H967.899V343.941H992.053H992.094ZM993.09 342.903H966.861V406.868H993.09V342.903Z" fill="#BA9E66"/>
<path d="M992.437 391.938H967.629V393.079H992.437V391.938Z" fill="#BA9E66"/>
<path d="M992.291 349.74H980.889V350.882H992.291V349.74Z" fill="#BA9E66"/>
<path d="M992.291 356.578H980.889V357.719H992.291V356.578Z" fill="#BA9E66"/>
<path d="M992.291 363.426H980.889V364.567H992.291V363.426Z" fill="#BA9E66"/>
<path d="M992.291 370.263H980.889V371.404H992.291V370.263Z" fill="#BA9E66"/>
<path d="M992.001 377.11H980.889V378.252H992.001V377.11Z" fill="#BA9E66"/>
<path d="M992.438 383.948H980.973V385.09H992.438V383.948Z" fill="#BA9E66"/>
<path d="M987.436 342.893H986.295V393.068H987.436V342.893Z" fill="#BA9E66"/>
<path d="M978.305 349.74H966.902V350.882H978.305V349.74Z" fill="#BA9E66"/>
<path d="M978.305 356.578H966.902V357.719H978.305V356.578Z" fill="#BA9E66"/>
<path d="M978.305 363.426H966.902V364.567H978.305V363.426Z" fill="#BA9E66"/>
<path d="M978.305 370.263H966.902V371.404H978.305V370.263Z" fill="#BA9E66"/>
<path d="M978.305 377.11H966.902V378.252H978.305V377.11Z" fill="#BA9E66"/>
<path d="M978.305 383.948H966.902V385.09H978.305V383.948Z" fill="#BA9E66"/>
<path d="M973.751 342.893H972.609V393.068H973.751V342.893Z" fill="#BA9E66"/>
<path d="M980.691 343.941V392.042H979.342V343.941H980.691ZM981.729 342.903H978.305V393.079H981.729V342.903Z" fill="#BA9E66"/>
<path d="M980.589 397.124C981.22 397.124 981.826 397.375 982.273 397.82C982.72 398.265 982.973 398.869 982.976 399.5C982.976 400.133 982.724 400.74 982.277 401.188C981.829 401.635 981.222 401.887 980.589 401.887C979.958 401.884 979.354 401.631 978.909 401.184C978.463 400.737 978.213 400.132 978.213 399.5C978.216 398.871 978.467 398.268 978.912 397.823C979.357 397.378 979.96 397.127 980.589 397.124V397.124ZM980.589 396.087C979.684 396.087 978.816 396.447 978.176 397.087C977.535 397.727 977.176 398.595 977.176 399.5C977.174 399.95 977.262 400.395 977.433 400.81C977.604 401.225 977.855 401.603 978.172 401.921C978.489 402.239 978.866 402.491 979.281 402.664C979.695 402.836 980.14 402.924 980.589 402.924C981.497 402.924 982.368 402.564 983.01 401.922C983.653 401.279 984.013 400.409 984.013 399.5C984.013 399.051 983.925 398.607 983.752 398.192C983.58 397.777 983.328 397.4 983.01 397.083C982.692 396.766 982.314 396.515 981.899 396.344C981.483 396.173 981.039 396.086 980.589 396.087V396.087Z" fill="#BA9E66"/>
<path d="M929.978 439.872H916.832V440.91H929.978V439.872Z" fill="#BA9E66"/>
<path d="M960.398 439.872H947.252V440.91H960.398V439.872Z" fill="#BA9E66"/>
<path d="M1017.64 439.872H1004.49V440.91H1017.64V439.872Z" fill="#BA9E66"/>
<path d="M1048.06 439.872H1034.91V440.91H1048.06V439.872Z" fill="#BA9E66"/>
<path d="M1050.66 428.116H912.629V429.154H1050.66V428.116Z" fill="#BA9E66"/>
<path d="M1046.33 431.903H916.832V432.941H1046.33V431.903Z" fill="#BA9E66"/>
<path d="M1050.66 435.888H912.629V436.925H1050.66V435.888Z" fill="#BA9E66"/>
<path d="M915.234 354.918H888.662V355.956H915.234V354.918Z" fill="#BA9E66"/>
<path d="M909.298 362.907H892.168V363.945H909.298V362.907Z" fill="#BA9E66"/>
<path d="M909.298 358.912H892.168V359.95H909.298V358.912Z" fill="#BA9E66"/>
<path d="M1058.59 358.912H1045.32V359.95H1058.59V358.912Z" fill="#BA9E66"/>
<path d="M1046.85 428.635H1045.81V406.94H917.485V428.635H916.447V405.902H1046.85V428.635Z" fill="#BA9E66"/>
<path d="M887.504 437.037L845.332 451.88L845.676 452.859L887.848 438.016L887.504 437.037Z" fill="#BA9E66"/>
<path d="M887.487 430.79L845.297 446.732L845.664 447.703L887.854 431.761L887.487 430.79Z" fill="#BA9E66"/>
<path d="M887.489 418.822L845.299 434.765L845.666 435.735L887.856 419.793L887.489 418.822Z" fill="#BA9E66"/>
<path d="M887.505 410.777L845.324 428.103L845.718 429.062L887.899 411.737L887.505 410.777Z" fill="#BA9E66"/>
<path d="M884.59 355.12L845.154 385.908L845.793 386.726L885.228 355.938L884.59 355.12Z" fill="#BA9E66"/>
<path d="M955.666 406.422H954.628V355.956H920.939V354.918H955.666V406.422Z" fill="#BA9E66"/>
<path d="M1000.15 406.422H999.109V354.918H1033.83V355.956H1000.15V406.422Z" fill="#BA9E66"/>
<path d="M1058.59 327.558H887.666V328.595H1058.59V327.558Z" fill="#BA9E66"/>
<path d="M1059.11 333.202H1058.07V533.344H1059.11V333.202Z" fill="#BA9E66"/>
<path d="M1084.46 318.096H1083.42V545.712H1084.46V318.096Z" fill="#BA9E66"/>
<path d="M1111.32 318.096H1110.28V545.204H1111.32V318.096Z" fill="#BA9E66"/>
<path d="M1055.69 345.57H999.109V328.087H1000.15V344.532H1055.69V345.57Z" fill="#BA9E66"/>
<path d="M1013.27 328.076H1012.23V345.04H1013.27V328.076Z" fill="#BA9E66"/>
<path d="M1033.32 328.076H1032.28V345.04H1033.32V328.076Z" fill="#BA9E66"/>
<path d="M954.909 345.57H890.529V344.532H953.871V328.087H954.909V345.57Z" fill="#BA9E66"/>
<path d="M941.784 328.076H940.746V345.04H941.784V328.076Z" fill="#BA9E66"/>
<path d="M921.739 328.076H920.701V345.04H921.739V328.076Z" fill="#BA9E66"/>
<path d="M909.942 328.076H908.904V345.04H909.942V328.076Z" fill="#BA9E66"/>
<path d="M1045.84 328.076H1044.8V345.04H1045.84V328.076Z" fill="#BA9E66"/>
<path d="M925.961 364.38L925.027 363.944C925.624 362.676 926.571 361.605 927.757 360.859C928.943 360.112 930.318 359.721 931.719 359.732C933.108 359.724 934.471 360.11 935.65 360.844C936.828 361.579 937.775 362.632 938.381 363.882L937.447 364.328C936.923 363.257 936.108 362.356 935.095 361.728C934.081 361.101 932.911 360.772 931.719 360.78C930.516 360.769 929.336 361.102 928.316 361.74C927.295 362.378 926.479 363.294 925.961 364.38V364.38Z" fill="#BA9E66"/>
<path d="M931.688 399.605C930.3 399.61 928.938 399.223 927.76 398.489C926.582 397.755 925.635 396.703 925.027 395.455L925.961 395.009C926.487 396.078 927.302 396.978 928.315 397.605C929.328 398.232 930.497 398.562 931.688 398.557C932.892 398.565 934.073 398.23 935.093 397.59C936.113 396.951 936.93 396.033 937.447 394.946L938.381 395.372C937.786 396.643 936.84 397.717 935.654 398.467C934.468 399.217 933.092 399.612 931.688 399.605V399.605Z" fill="#BA9E66"/>
<path d="M925.069 366.31H924.031V392.466H925.069V366.31Z" fill="#BA9E66"/>
<path d="M939.387 366.31H938.35V392.466H939.387V366.31Z" fill="#BA9E66"/>
<path d="M1016.54 364.38L1015.61 363.944C1016.2 362.676 1017.15 361.605 1018.34 360.859C1019.52 360.112 1020.9 359.721 1022.3 359.732C1023.69 359.724 1025.05 360.11 1026.23 360.844C1027.41 361.579 1028.35 362.632 1028.96 363.882L1028.02 364.328C1027.5 363.257 1026.69 362.356 1025.67 361.728C1024.66 361.101 1023.49 360.772 1022.3 360.78C1021.09 360.768 1019.91 361.101 1018.89 361.739C1017.87 362.377 1017.06 363.293 1016.54 364.38V364.38Z" fill="#BA9E66"/>
<path d="M1022.27 399.605C1020.88 399.61 1019.52 399.223 1018.34 398.489C1017.16 397.755 1016.21 396.703 1015.61 395.455L1016.54 395.009C1017.06 396.078 1017.88 396.978 1018.89 397.605C1019.91 398.232 1021.08 398.562 1022.27 398.557C1023.47 398.566 1024.65 398.232 1025.67 397.592C1026.69 396.952 1027.51 396.034 1028.02 394.946L1028.96 395.372C1028.36 396.643 1027.42 397.717 1026.23 398.467C1025.05 399.217 1023.67 399.612 1022.27 399.605Z" fill="#BA9E66"/>
<path d="M1015.65 366.31H1014.61V392.466H1015.65V366.31Z" fill="#BA9E66"/>
<path d="M1029.97 366.31H1028.93V392.466H1029.97V366.31Z" fill="#BA9E66"/>
<path d="M1058.27 354.918H1042.69V355.956H1058.27V354.918Z" fill="#BA9E66"/>
<path d="M1058.27 363.478H1042.69V364.515H1058.27V363.478Z" fill="#BA9E66"/>
<path d="M1045.84 366.31H1044.8V402.925H1045.84V366.31Z" fill="#BA9E66"/>
<path d="M1224.89 323.802H1223.85V491.957H1224.89V323.802Z" fill="#BA9E66"/>
<path d="M1417.62 228.98H1195.9V230.018H1417.62V228.98Z" fill="#BA9E66"/>
<path d="M1222.88 246.649H1195.9V247.687H1222.88V246.649Z" fill="#BA9E66"/>
<path d="M1260.83 246.649H1242.82V247.687H1260.83V246.649Z" fill="#BA9E66"/>
<path d="M1222.88 250.012H1195.9V251.049H1222.88V250.012Z" fill="#BA9E66"/>
<path d="M1260.83 250.012H1242.82V251.049H1260.83V250.012Z" fill="#BA9E66"/>
<path d="M1237.92 233.317H1234.94V240.757H1237.92V233.317Z" fill="#BA9E66"/>
<path d="M1237.92 243.734H1234.94V246.712H1237.92V243.734Z" fill="#BA9E66"/>
<path d="M1231.96 233.317H1228.99V240.757H1231.96V233.317Z" fill="#BA9E66"/>
<path d="M1231.96 243.734H1228.99V246.712H1231.96V243.734Z" fill="#BA9E66"/>
<path d="M1272.14 233.317H1269.16V240.757H1272.14V233.317Z" fill="#BA9E66"/>
<path d="M1272.14 243.734H1269.16V246.712H1272.14V243.734Z" fill="#BA9E66"/>
<path d="M1266.18 233.317H1263.21V240.757H1266.18V233.317Z" fill="#BA9E66"/>
<path d="M1266.18 243.734H1263.21V246.712H1266.18V243.734Z" fill="#BA9E66"/>
<path d="M1278.08 233.317H1275.11V240.757H1278.08V233.317Z" fill="#BA9E66"/>
<path d="M1278.08 243.734H1275.11V246.712H1278.08V243.734Z" fill="#BA9E66"/>
<path d="M1272.14 233.317H1269.16V240.757H1272.14V233.317Z" fill="#BA9E66"/>
<path d="M1272.14 243.734H1269.16V246.712H1272.14V243.734Z" fill="#BA9E66"/>
<path d="M1278.08 233.317H1275.11V240.757H1278.08V233.317Z" fill="#BA9E66"/>
<path d="M1278.08 243.734H1275.11V246.712H1278.08V243.734Z" fill="#BA9E66"/>
<path d="M1246.72 508.08H1235.52V422.835H1246.72V508.08ZM1236.56 507.042H1245.68V423.873H1236.56V507.042Z" fill="#BA9E66"/>
<path d="M1286.43 508.08H1275.23V422.835H1286.43V508.08ZM1276.27 507.042H1285.39V423.873H1276.27V507.042Z" fill="#BA9E66"/>
<path d="M1249.7 419.256H1232.54V420.293H1249.7V419.256Z" fill="#BA9E66"/>
<path d="M1289.39 419.256H1272.24V420.293H1289.39V419.256Z" fill="#BA9E66"/>
<path d="M1407.19 403.91H1227.07V404.948H1407.19V403.91Z" fill="#BA9E66"/>
<path d="M1401.53 408.85H1232.54V409.887H1401.53V408.85Z" fill="#BA9E66"/>
<path d="M1407.19 414.058H1227.07V415.095H1407.19V414.058Z" fill="#BA9E66"/>
<path d="M1230.47 308.404H1195.79V309.442H1230.47V308.404Z" fill="#BA9E66"/>
<path d="M1222.72 318.821H1200.37V319.859H1222.72V318.821Z" fill="#BA9E66"/>
<path d="M1222.72 313.613H1200.37V314.651H1222.72V313.613Z" fill="#BA9E66"/>
<path d="M1402.05 404.43H1401.01V375.959H1233.25V404.43H1232.21V374.922H1402.05V404.43Z" fill="#BA9E66"/>
<path d="M1283.06 375.44H1282.03V309.442H1237.92V308.404H1283.06V375.44Z" fill="#BA9E66"/>
<path d="M1417.54 272.703H1194.5V273.741H1417.54V272.703Z" fill="#BA9E66"/>
<path d="M1282.09 295.882H1198.23V294.844H1281.05V273.222H1282.09V295.882Z" fill="#BA9E66"/>
<path d="M1264.95 273.222H1263.91V295.363H1264.95V273.222Z" fill="#BA9E66"/>
<path d="M1238.8 273.222H1237.77V295.363H1238.8V273.222Z" fill="#BA9E66"/>
<path d="M1223.39 273.222H1222.36V295.363H1223.39V273.222Z" fill="#BA9E66"/>
<path d="M1244.33 320.512L1243.39 320.087C1244.15 318.458 1245.37 317.082 1246.89 316.122C1248.41 315.163 1250.18 314.659 1251.98 314.671C1253.76 314.661 1255.51 315.155 1257.02 316.095C1258.53 317.034 1259.75 318.382 1260.53 319.983L1259.6 320.43C1258.9 319.006 1257.81 317.808 1256.47 316.973C1255.12 316.138 1253.56 315.7 1251.98 315.709C1250.38 315.696 1248.81 316.142 1247.45 316.993C1246.1 317.844 1245.02 319.065 1244.33 320.512Z" fill="#BA9E66"/>
<path d="M1251.94 366.382C1250.16 366.392 1248.41 365.899 1246.9 364.959C1245.38 364.019 1244.17 362.671 1243.39 361.07L1244.32 360.624C1245.02 362.049 1246.1 363.249 1247.45 364.084C1248.8 364.919 1250.35 365.356 1251.94 365.345C1253.54 365.359 1255.11 364.915 1256.47 364.063C1257.83 363.212 1258.91 361.99 1259.6 360.541L1260.54 360.977C1259.77 362.604 1258.55 363.977 1257.03 364.935C1255.5 365.893 1253.74 366.395 1251.94 366.382V366.382Z" fill="#BA9E66"/>
<path d="M1243.14 323.106H1242.1V357.242H1243.14V323.106Z" fill="#BA9E66"/>
<path d="M1261.82 323.106H1260.79V357.242H1261.82V323.106Z" fill="#BA9E66"/>
<path d="M1187.02 270.42H1185.98V555.018H1187.02V270.42Z" fill="#BA9E66"/>
<path d="M1180.3 410.919L1115.05 424.599L1115.26 425.614L1180.52 411.934L1180.3 410.919Z" fill="#BA9E66"/>
<path d="M1176.72 305.043L1116.81 326.695L1117.16 327.671L1177.07 306.018L1176.72 305.043Z" fill="#BA9E66"/>
<path d="M1106.7 332.684H1086.94V333.721H1106.7V332.684Z" fill="#BA9E66"/>
<path d="M1106.7 341.481H1086.94V342.519H1106.7V341.481Z" fill="#BA9E66"/>
<path d="M1106.7 344.532H1086.94V345.57H1106.7V344.532Z" fill="#BA9E66"/>
<path d="M1106.7 352.313H1086.94V353.351H1106.7V352.313Z" fill="#BA9E66"/>
<path d="M1093.76 320.057H1092.73V333.202H1093.76V320.057Z" fill="#BA9E66"/>
<path d="M1098.13 320.057H1097.09V333.202H1098.13V320.057Z" fill="#BA9E66"/>
<path d="M1102.49 320.057H1101.45V333.202H1102.49V320.057Z" fill="#BA9E66"/>
<path d="M1081.19 336.119L1063.16 344.603L1063.6 345.541L1081.64 337.058L1081.19 336.119Z" fill="#BA9E66"/>
<path d="M1081.2 343.918L1063.16 352.401L1063.61 353.34L1081.64 344.857L1081.2 343.918Z" fill="#BA9E66"/>
<path d="M1079.87 399.161L1063.12 406.082L1063.52 407.041L1080.26 400.12L1079.87 399.161Z" fill="#BA9E66"/>
<path d="M1176.71 376.726L1116.79 392.133L1117.05 393.138L1176.97 377.731L1176.71 376.726Z" fill="#BA9E66"/>
<path d="M1176.7 389.047L1116.78 404.454L1117.04 405.459L1176.96 390.052L1176.7 389.047Z" fill="#BA9E66"/>
<path d="M845.863 352.324L845.105 351.619L879.697 315.004H879.925L1052.45 315.574L1075.07 302.117H1095.26L1185.12 255.708H1417.23V256.746H1185.37L1095.51 303.155H1075.35L1052.73 316.612L880.143 316.041L845.863 352.324Z" fill="#BA9E66"/>
<path d="M848.852 390.215H847.814V420.553H848.852V390.215Z" fill="#BA9E66"/>
<path d="M854.268 386.23H853.23V418.322H854.268V386.23Z" fill="#BA9E66"/>
<path d="M861.987 379.964H860.949V415.157H861.987V379.964Z" fill="#BA9E66"/>
<path d="M881.139 365.003H880.102V407.304H881.139V365.003Z" fill="#BA9E66"/>
<path d="M870.774 373.096H869.736V411.547H870.774V373.096Z" fill="#BA9E66"/>
<path d="M1000.47 262.254C995.903 258.104 988.142 255.573 979.717 255.573C971.728 255.573 964.154 257.866 959.578 261.715L958.914 260.916C963.718 256.922 971.499 254.535 979.665 254.535C988.36 254.535 996.39 257.139 1001.14 261.497L1000.47 262.254Z" fill="#BA9E66"/>
<path d="M994.389 294.771H993.351V267.795C990.322 265.129 985.279 263.541 979.863 263.541C974.675 263.541 969.809 264.994 966.748 267.432V294.408H965.711V266.965L965.898 266.809C969.124 264.122 974.343 262.524 979.863 262.524C985.694 262.524 991.079 264.267 994.275 267.204L994.44 267.349L994.389 294.771Z" fill="#BA9E66"/>
<path d="M980.538 263.012H979.5V294.356H980.538V263.012Z" fill="#BA9E66"/>
<path d="M993.796 278.367H966.26V279.405H993.796V278.367Z" fill="#BA9E66"/>
<path d="M1233.6 161.083L1208.3 205.738L1209.2 206.25L1234.51 161.594L1233.6 161.083Z" fill="#BA9E66"/>
<path d="M1176.44 189.808L1162.76 231.095L1163.74 231.421L1177.42 190.134L1176.44 189.808Z" fill="#BA9E66"/>
<path d="M1121.77 334.571H1120.73V383.72H1121.77V334.571Z" fill="#BA9E66"/>
<path d="M1130.28 331.5H1129.24V381.53H1130.28V331.5Z" fill="#BA9E66"/>
<path d="M1139.94 327.817H1138.91V379.041H1139.94V327.817Z" fill="#BA9E66"/>
<path d="M1150.95 323.802H1149.92V376.219H1150.95V323.802Z" fill="#BA9E66"/>
<path d="M1169.1 318.738H1168.06V372.431H1169.1V318.738Z" fill="#BA9E66"/>
<path d="M1169.1 427.764H1168.06V553.4H1169.1V427.764Z" fill="#BA9E66"/>
<path d="M433.044 362.036L396.284 323.418H225.401L203.374 310.885H183.754L183.639 310.823L94.1927 264.434H-137.18V263.396H94.4521L94.5662 263.459L184.003 309.847H203.654L225.681 322.381H396.73L433.802 361.32L433.044 362.036Z" fill="#BA9E66"/>
<path d="M439.623 372.618H438.586V522.657H439.623V372.618Z" fill="#BA9E66"/>
<path d="M390.039 366.248H389.002V495.111H390.039V366.248Z" fill="#BA9E66"/>
<path d="M370.004 366.248H368.967V495.111H370.004V366.248Z" fill="#BA9E66"/>
<path d="M391.305 293.464H228.4V294.501H391.305V293.464Z" fill="#BA9E66"/>
<path d="M391.315 306.994H370.637V308.032H391.315V306.994Z" fill="#BA9E66"/>
<path d="M355.354 306.994H341.555V308.032H355.354V306.994Z" fill="#BA9E66"/>
<path d="M265.875 306.994H252.076V308.032H265.875V306.994Z" fill="#BA9E66"/>
<path d="M391.315 309.566H370.637V310.604H391.315V309.566Z" fill="#BA9E66"/>
<path d="M355.354 309.566H341.555V310.604H355.354V309.566Z" fill="#BA9E66"/>
<path d="M265.875 309.566H252.076V310.604H265.875V309.566Z" fill="#BA9E66"/>
<path d="M361.392 296.898H359.109V302.605H361.392V296.898Z" fill="#BA9E66"/>
<path d="M361.392 304.888H359.109V307.17H361.392V304.888Z" fill="#BA9E66"/>
<path d="M365.958 296.898H363.676V302.605H365.958V296.898Z" fill="#BA9E66"/>
<path d="M365.958 304.888H363.676V307.17H365.958V304.888Z" fill="#BA9E66"/>
<path d="M244.939 296.898H242.656V302.605H244.939V296.898Z" fill="#BA9E66"/>
<path d="M244.939 304.888H242.656V307.17H244.939V304.888Z" fill="#BA9E66"/>
<path d="M249.503 296.898H247.221V302.605H249.503V296.898Z" fill="#BA9E66"/>
<path d="M249.503 304.888H247.221V307.17H249.503V304.888Z" fill="#BA9E66"/>
<path d="M335.173 296.898H332.891V302.605H335.173V296.898Z" fill="#BA9E66"/>
<path d="M335.173 304.888H332.891V307.17H335.173V304.888Z" fill="#BA9E66"/>
<path d="M339.728 296.898H337.445V302.605H339.728V296.898Z" fill="#BA9E66"/>
<path d="M339.728 304.888H337.445V307.17H339.728V304.888Z" fill="#BA9E66"/>
<path d="M330.609 296.898H328.326V302.605H330.609V296.898Z" fill="#BA9E66"/>
<path d="M330.609 304.888H328.326V307.17H330.609V304.888Z" fill="#BA9E66"/>
<path d="M335.173 296.898H332.891V302.605H335.173V296.898Z" fill="#BA9E66"/>
<path d="M335.173 304.888H332.891V307.17H335.173V304.888Z" fill="#BA9E66"/>
<path d="M326.044 296.898H323.762V302.605H326.044V296.898Z" fill="#BA9E66"/>
<path d="M326.044 304.888H323.762V307.17H326.044V304.888Z" fill="#BA9E66"/>
<path d="M330.609 296.898H328.326V302.605H330.609V296.898Z" fill="#BA9E66"/>
<path d="M330.609 304.888H328.326V307.17H330.609V304.888Z" fill="#BA9E66"/>
<path d="M321.49 296.898H319.207V302.605H321.49V296.898Z" fill="#BA9E66"/>
<path d="M321.49 304.888H319.207V307.17H321.49V304.888Z" fill="#BA9E66"/>
<path d="M326.044 296.898H323.762V302.605H326.044V296.898Z" fill="#BA9E66"/>
<path d="M326.044 304.888H323.762V307.17H326.044V304.888Z" fill="#BA9E66"/>
<path d="M316.923 296.898H314.641V302.605H316.923V296.898Z" fill="#BA9E66"/>
<path d="M316.923 304.888H314.641V307.17H316.923V304.888Z" fill="#BA9E66"/>
<path d="M321.49 296.898H319.207V302.605H321.49V296.898Z" fill="#BA9E66"/>
<path d="M321.49 304.888H319.207V307.17H321.49V304.888Z" fill="#BA9E66"/>
<path d="M312.357 296.898H310.074V302.605H312.357V296.898Z" fill="#BA9E66"/>
<path d="M312.357 304.888H310.074V307.17H312.357V304.888Z" fill="#BA9E66"/>
<path d="M316.923 296.898H314.641V302.605H316.923V296.898Z" fill="#BA9E66"/>
<path d="M316.923 304.888H314.641V307.17H316.923V304.888Z" fill="#BA9E66"/>
<path d="M307.804 296.898H305.521V302.605H307.804V296.898Z" fill="#BA9E66"/>
<path d="M307.804 304.888H305.521V307.17H307.804V304.888Z" fill="#BA9E66"/>
<path d="M312.357 296.898H310.074V302.605H312.357V296.898Z" fill="#BA9E66"/>
<path d="M312.357 304.888H310.074V307.17H312.357V304.888Z" fill="#BA9E66"/>
<path d="M303.238 296.898H300.955V302.605H303.238V296.898Z" fill="#BA9E66"/>
<path d="M303.238 304.888H300.955V307.17H303.238V304.888Z" fill="#BA9E66"/>
<path d="M307.804 296.898H305.521V302.605H307.804V296.898Z" fill="#BA9E66"/>
<path d="M307.804 304.888H305.521V307.17H307.804V304.888Z" fill="#BA9E66"/>
<path d="M298.683 296.898H296.4V302.605H298.683V296.898Z" fill="#BA9E66"/>
<path d="M298.683 304.888H296.4V307.17H298.683V304.888Z" fill="#BA9E66"/>
<path d="M303.238 296.898H300.955V302.605H303.238V296.898Z" fill="#BA9E66"/>
<path d="M303.238 304.888H300.955V307.17H303.238V304.888Z" fill="#BA9E66"/>
<path d="M294.118 296.898H291.836V302.605H294.118V296.898Z" fill="#BA9E66"/>
<path d="M294.118 304.888H291.836V307.17H294.118V304.888Z" fill="#BA9E66"/>
<path d="M298.683 296.898H296.4V302.605H298.683V296.898Z" fill="#BA9E66"/>
<path d="M298.683 304.888H296.4V307.17H298.683V304.888Z" fill="#BA9E66"/>
<path d="M289.552 296.898H287.27V302.605H289.552V296.898Z" fill="#BA9E66"/>
<path d="M289.552 304.888H287.27V307.17H289.552V304.888Z" fill="#BA9E66"/>
<path d="M294.118 296.898H291.836V302.605H294.118V296.898Z" fill="#BA9E66"/>
<path d="M294.118 304.888H291.836V307.17H294.118V304.888Z" fill="#BA9E66"/>
<path d="M284.997 296.898H282.715V302.605H284.997V296.898Z" fill="#BA9E66"/>
<path d="M284.997 304.888H282.715V307.17H284.997V304.888Z" fill="#BA9E66"/>
<path d="M289.552 296.898H287.27V302.605H289.552V296.898Z" fill="#BA9E66"/>
<path d="M289.552 304.888H287.27V307.17H289.552V304.888Z" fill="#BA9E66"/>
<path d="M280.433 296.898H278.15V302.605H280.433V296.898Z" fill="#BA9E66"/>
<path d="M280.433 304.888H278.15V307.17H280.433V304.888Z" fill="#BA9E66"/>
<path d="M284.997 296.898H282.715V302.605H284.997V296.898Z" fill="#BA9E66"/>
<path d="M284.997 304.888H282.715V307.17H284.997V304.888Z" fill="#BA9E66"/>
<path d="M275.869 296.898H273.586V302.605H275.869V296.898Z" fill="#BA9E66"/>
<path d="M275.869 304.888H273.586V307.17H275.869V304.888Z" fill="#BA9E66"/>
<path d="M280.433 296.898H278.15V302.605H280.433V296.898Z" fill="#BA9E66"/>
<path d="M280.433 304.888H278.15V307.17H280.433V304.888Z" fill="#BA9E66"/>
<path d="M271.312 296.898H269.029V302.605H271.312V296.898Z" fill="#BA9E66"/>
<path d="M271.312 304.888H269.029V307.17H271.312V304.888Z" fill="#BA9E66"/>
<path d="M275.869 296.898H273.586V302.605H275.869V296.898Z" fill="#BA9E66"/>
<path d="M275.869 304.888H273.586V307.17H275.869V304.888Z" fill="#BA9E66"/>
<path d="M385.277 278.596L315.544 198.695H168.648L139.223 178.857H102.94L17.0628 117.497H-214.061V116.459H17.4052L103.272 177.819H139.545L168.959 197.657H316.021L316.176 197.844L386.055 277.911L385.277 278.596Z" fill="#BA9E66"/>
<path d="M169.68 202.188L168.75 202.647L209.246 284.549L210.176 284.089L169.68 202.188Z" fill="#BA9E66"/>
<path d="M139.671 191.834L138.723 192.256L172.929 269.157L173.877 268.735L139.671 191.834Z" fill="#BA9E66"/>
<path d="M139.659 181.409H138.621V189.429H139.659V181.409Z" fill="#BA9E66"/>
<path d="M312.11 343.338V405.228H287.956V343.338H312.11ZM313.147 342.301H286.918V406.265H313.147V342.301Z" fill="#BA9E66"/>
<path d="M312.431 391.336H287.623V392.477H312.431V391.336Z" fill="#BA9E66"/>
<path d="M299.16 349.139H287.758V350.28H299.16V349.139Z" fill="#BA9E66"/>
<path d="M299.16 355.976H287.758V357.117H299.16V355.976Z" fill="#BA9E66"/>
<path d="M299.16 362.824H287.758V363.966H299.16V362.824Z" fill="#BA9E66"/>
<path d="M299.16 369.661H287.758V370.802H299.16V369.661Z" fill="#BA9E66"/>
<path d="M299.171 376.509H288.059V377.65H299.171V376.509Z" fill="#BA9E66"/>
<path d="M299.088 383.347H287.623V384.488H299.088V383.347Z" fill="#BA9E66"/>
<path d="M293.755 342.291H292.613V392.467H293.755V342.291Z" fill="#BA9E66"/>
<path d="M313.147 349.139H301.744V350.28H313.147V349.139Z" fill="#BA9E66"/>
<path d="M313.147 355.976H301.744V357.117H313.147V355.976Z" fill="#BA9E66"/>
<path d="M313.147 362.824H301.744V363.966H313.147V362.824Z" fill="#BA9E66"/>
<path d="M313.147 369.661H301.744V370.802H313.147V369.661Z" fill="#BA9E66"/>
<path d="M313.147 376.509H301.744V377.65H313.147V376.509Z" fill="#BA9E66"/>
<path d="M313.147 383.347H301.744V384.488H313.147V383.347Z" fill="#BA9E66"/>
<path d="M307.44 342.291H306.299V392.467H307.44V342.291Z" fill="#BA9E66"/>
<path d="M300.757 343.338V391.47H299.409V343.37H300.757V343.338ZM301.795 342.332H298.371V392.508H301.795V342.332Z" fill="#BA9E66"/>
<path d="M299.461 396.523C300.09 396.526 300.693 396.777 301.138 397.222C301.583 397.667 301.834 398.27 301.837 398.899C301.837 399.53 301.587 400.135 301.142 400.583C300.696 401.03 300.092 401.282 299.461 401.285C298.828 401.285 298.221 401.034 297.774 400.586C297.326 400.139 297.075 399.532 297.075 398.899C297.077 398.268 297.33 397.664 297.777 397.218C298.225 396.773 298.83 396.523 299.461 396.523V396.523ZM299.461 395.485C299.012 395.484 298.567 395.571 298.151 395.742C297.736 395.913 297.359 396.164 297.041 396.481C296.723 396.799 296.47 397.175 296.298 397.59C296.126 398.005 296.037 398.45 296.037 398.899C296.037 399.807 296.398 400.678 297.04 401.32C297.682 401.962 298.553 402.323 299.461 402.323C299.91 402.323 300.355 402.234 300.77 402.062C301.184 401.89 301.561 401.637 301.878 401.319C302.195 401.001 302.447 400.624 302.618 400.208C302.789 399.793 302.876 399.348 302.875 398.899C302.875 397.994 302.515 397.125 301.875 396.485C301.235 395.845 300.366 395.485 299.461 395.485Z" fill="#BA9E66"/>
<path d="M363.23 439.27H350.084V440.307H363.23V439.27Z" fill="#BA9E66"/>
<path d="M332.808 439.27H319.662V440.307H332.808V439.27Z" fill="#BA9E66"/>
<path d="M275.568 439.27H262.422V440.307H275.568V439.27Z" fill="#BA9E66"/>
<path d="M245.146 439.27H232V440.307H245.146V439.27Z" fill="#BA9E66"/>
<path d="M367.42 427.515H229.385V428.552H367.42V427.515Z" fill="#BA9E66"/>
<path d="M363.219 431.302H233.723V432.339H363.219V431.302Z" fill="#BA9E66"/>
<path d="M367.42 435.286H229.385V436.324H367.42V435.286Z" fill="#BA9E66"/>
<path d="M391.388 354.316H364.816V355.354H391.388V354.316Z" fill="#BA9E66"/>
<path d="M387.882 362.305H370.752V363.342H387.882V362.305Z" fill="#BA9E66"/>
<path d="M387.882 358.311H370.752V359.348H387.882V358.311Z" fill="#BA9E66"/>
<path d="M234.729 358.311H221.459V359.348H234.729V358.311Z" fill="#BA9E66"/>
<path d="M363.602 428.033H362.564V406.338H234.241V428.033H233.203V405.301H363.602V428.033Z" fill="#BA9E66"/>
<path d="M402.407 431.956L402.064 432.932L444.09 447.685L444.432 446.71L402.407 431.956Z" fill="#BA9E66"/>
<path d="M392.586 430.222L392.219 431.192L434.401 447.157L434.768 446.187L392.586 430.222Z" fill="#BA9E66"/>
<path d="M392.606 418.275L392.238 419.245L434.42 435.21L434.788 434.239L392.606 418.275Z" fill="#BA9E66"/>
<path d="M392.511 410.08L392.117 411.04L434.301 428.358L434.695 427.398L392.511 410.08Z" fill="#BA9E66"/>
<path d="M395.432 354.3L394.793 355.118L434.223 385.913L434.861 385.095L395.432 354.3Z" fill="#BA9E66"/>
<path d="M325.42 405.82H324.383V354.316H359.109V355.354H325.42V405.82Z" fill="#BA9E66"/>
<path d="M280.951 405.82H279.914V355.354H246.225V354.316H280.951V405.82Z" fill="#BA9E66"/>
<path d="M392.384 326.966H221.459V328.003H392.384V326.966Z" fill="#BA9E66"/>
<path d="M221.979 332.601H220.941V532.743H221.979V332.601Z" fill="#BA9E66"/>
<path d="M196.631 317.493H195.594V545.11H196.631V317.493Z" fill="#BA9E66"/>
<path d="M169.778 317.493H168.74V544.601H169.778V317.493Z" fill="#BA9E66"/>
<path d="M280.951 344.968H224.363V343.93H279.913V327.485H280.951V344.968Z" fill="#BA9E66"/>
<path d="M267.817 327.485H266.779V344.449H267.817V327.485Z" fill="#BA9E66"/>
<path d="M247.782 327.485H246.744V344.449H247.782V327.485Z" fill="#BA9E66"/>
<path d="M389.52 344.968H325.141V327.485H326.178V343.93H389.52V344.968Z" fill="#BA9E66"/>
<path d="M339.313 327.485H338.275V344.449H339.313V327.485Z" fill="#BA9E66"/>
<path d="M359.348 327.485H358.311V344.449H359.348V327.485Z" fill="#BA9E66"/>
<path d="M371.157 327.485H370.119V344.449H371.157V327.485Z" fill="#BA9E66"/>
<path d="M235.258 327.485H234.221V344.449H235.258V327.485Z" fill="#BA9E66"/>
<path d="M354.087 363.778C353.572 362.689 352.757 361.771 351.736 361.131C350.716 360.491 349.534 360.157 348.329 360.167C347.137 360.159 345.967 360.488 344.954 361.116C343.941 361.744 343.126 362.645 342.602 363.716L341.668 363.27C342.273 362.019 343.22 360.966 344.399 360.232C345.578 359.498 346.94 359.112 348.329 359.119C349.732 359.109 351.108 359.501 352.295 360.247C353.483 360.994 354.432 362.064 355.032 363.332L354.087 363.778Z" fill="#BA9E66"/>
<path d="M348.36 399.003C346.958 399.011 345.583 398.618 344.397 397.869C343.211 397.121 342.264 396.049 341.668 394.78L342.602 394.354C343.119 395.442 343.935 396.359 344.955 396.998C345.975 397.638 347.156 397.973 348.36 397.965C349.551 397.971 350.721 397.641 351.733 397.013C352.746 396.386 353.562 395.486 354.087 394.417L355.021 394.863C354.413 396.109 353.465 397.159 352.286 397.891C351.108 398.624 349.747 399.009 348.36 399.003V399.003Z" fill="#BA9E66"/>
<path d="M356.028 365.708H354.99V391.864H356.028V365.708Z" fill="#BA9E66"/>
<path d="M341.709 365.708H340.672V391.864H341.709V365.708Z" fill="#BA9E66"/>
<path d="M263.511 363.778C262.996 362.689 262.18 361.771 261.16 361.131C260.14 360.491 258.957 360.157 257.753 360.167C256.561 360.159 255.391 360.488 254.378 361.116C253.365 361.744 252.549 362.645 252.026 363.716L251.092 363.27C251.697 362.02 252.644 360.966 253.823 360.232C255.001 359.498 256.364 359.112 257.753 359.119C259.154 359.109 260.529 359.5 261.715 360.247C262.901 360.993 263.849 362.064 264.445 363.332L263.511 363.778Z" fill="#BA9E66"/>
<path d="M257.784 399.003C256.382 399.011 255.007 398.618 253.821 397.869C252.635 397.121 251.688 396.049 251.092 394.78L252.026 394.354C252.543 395.442 253.359 396.359 254.379 396.998C255.399 397.638 256.58 397.973 257.784 397.965C258.976 397.971 260.144 397.641 261.157 397.013C262.17 396.386 262.986 395.486 263.511 394.417L264.445 394.863C263.836 396.109 262.889 397.159 261.71 397.891C260.532 398.624 259.171 399.009 257.784 399.003V399.003Z" fill="#BA9E66"/>
<path d="M265.452 365.708H264.414V391.864H265.452V365.708Z" fill="#BA9E66"/>
<path d="M251.133 365.708H250.096V391.864H251.133V365.708Z" fill="#BA9E66"/>
<path d="M237.365 354.316H221.781V355.354H237.365V354.316Z" fill="#BA9E66"/>
<path d="M237.365 362.876H221.781V363.914H237.365V362.876Z" fill="#BA9E66"/>
<path d="M235.258 365.708H234.221V402.323H235.258V365.708Z" fill="#BA9E66"/>
<path d="M56.1997 323.2H55.1621V491.355H56.1997V323.2Z" fill="#BA9E66"/>
<path d="M84.1509 228.379H-137.572V229.416H84.1509V228.379Z" fill="#BA9E66"/>
<path d="M84.15 246.048H57.1738V247.085H84.15V246.048Z" fill="#BA9E66"/>
<path d="M37.2423 246.048H19.2305V247.085H37.2423V246.048Z" fill="#BA9E66"/>
<path d="M84.15 249.41H57.1738V250.448H84.15V249.41Z" fill="#BA9E66"/>
<path d="M37.2423 249.41H19.2305V250.448H37.2423V249.41Z" fill="#BA9E66"/>
<path d="M45.1184 232.716H42.1406V240.155H45.1184V232.716Z" fill="#BA9E66"/>
<path d="M45.1184 243.133H42.1406V246.111H45.1184V243.133Z" fill="#BA9E66"/>
<path d="M51.0637 232.716H48.0859V240.155H51.0637V232.716Z" fill="#BA9E66"/>
<path d="M51.0637 243.133H48.0859V246.111H51.0637V243.133Z" fill="#BA9E66"/>
<path d="M10.8996 232.716H7.92188V240.155H10.8996V232.716Z" fill="#BA9E66"/>
<path d="M10.8996 243.133H7.92188V246.111H10.8996V243.133Z" fill="#BA9E66"/>
<path d="M16.8547 232.716H13.877V240.155H16.8547V232.716Z" fill="#BA9E66"/>
<path d="M16.8547 243.133H13.877V246.111H16.8547V243.133Z" fill="#BA9E66"/>
<path d="M4.94458 232.716H1.9668V240.155H4.94458V232.716Z" fill="#BA9E66"/>
<path d="M4.94458 243.133H1.9668V246.111H4.94458V243.133Z" fill="#BA9E66"/>
<path d="M10.8996 232.716H7.92188V240.155H10.8996V232.716Z" fill="#BA9E66"/>
<path d="M10.8996 243.133H7.92188V246.111H10.8996V243.133Z" fill="#BA9E66"/>
<path d="M4.94458 232.716H1.9668V240.155H4.94458V232.716Z" fill="#BA9E66"/>
<path d="M4.94458 243.133H1.9668V246.111H4.94458V243.133Z" fill="#BA9E66"/>
<path d="M44.4842 507.478H33.2891V422.233H44.4842V507.478ZM34.3266 506.441H43.4467V423.271H34.3266V506.441Z" fill="#BA9E66"/>
<path d="M4.82929 507.478H-6.35547V422.233H4.83968L4.82929 507.478ZM-5.32831 506.441H3.79175V423.271H-5.31792L-5.32831 506.441Z" fill="#BA9E66"/>
<path d="M47.5139 418.654H30.3633V419.692H47.5139V418.654Z" fill="#BA9E66"/>
<path d="M7.81857 418.654H-9.33203V419.692H7.81857V418.654Z" fill="#BA9E66"/>
<path d="M52.9829 403.309H-127.135V404.346H52.9829V403.309Z" fill="#BA9E66"/>
<path d="M47.5043 408.248H-121.48V409.286H47.5043V408.248Z" fill="#BA9E66"/>
<path d="M52.9829 413.456H-127.135V414.494H52.9829V413.456Z" fill="#BA9E66"/>
<path d="M84.2549 307.803H49.5801V308.84H84.2549V307.803Z" fill="#BA9E66"/>
<path d="M79.6788 318.22H57.3301V319.257H79.6788V318.22Z" fill="#BA9E66"/>
<path d="M79.6788 313.012H57.3301V314.049H79.6788V313.012Z" fill="#BA9E66"/>
<path d="M47.846 403.828H46.8084V375.358H-120.962V403.828H-122V374.32H47.846V403.828Z" fill="#BA9E66"/>
<path d="M-1.97613 374.838H-3.01367V307.803H42.1402V308.84H-1.97613V374.838Z" fill="#BA9E66"/>
<path d="M85.5624 272.101H-137.479V273.138H85.5624V272.101Z" fill="#BA9E66"/>
<path d="M81.8146 295.279H-2.0293V272.619H-0.991753V294.242H81.8146V295.279Z" fill="#BA9E66"/>
<path d="M16.1391 272.619H15.1016V294.76H16.1391V272.619Z" fill="#BA9E66"/>
<path d="M42.2954 272.619H41.2578V294.76H42.2954V272.619Z" fill="#BA9E66"/>
<path d="M57.6938 272.619H56.6562V294.76H57.6938V272.619Z" fill="#BA9E66"/>
<path d="M35.7177 319.88C35.0345 318.433 33.9514 317.211 32.5964 316.36C31.2414 315.509 29.671 315.063 28.0708 315.076C26.4859 315.067 24.9306 315.505 23.5835 316.34C22.2364 317.175 21.1522 318.373 20.4554 319.797L19.5215 319.351C20.3014 317.75 21.5177 316.402 23.0303 315.462C24.5428 314.522 26.2901 314.028 28.0708 314.038C29.8705 314.026 31.6361 314.53 33.1585 315.49C34.681 316.449 35.8967 317.825 36.6617 319.454L35.7177 319.88Z" fill="#BA9E66"/>
<path d="M28.113 365.781C26.3132 365.793 24.5472 365.291 23.0233 364.333C21.4994 363.376 20.2811 362.002 19.5117 360.375L20.456 359.939C21.141 361.387 22.2258 362.609 23.5826 363.46C24.9394 364.311 26.5114 364.757 28.113 364.743C29.6984 364.755 31.2548 364.318 32.6024 363.482C33.9499 362.647 35.0338 361.448 35.7287 360.022L36.6624 360.469C35.8824 362.07 34.6661 363.418 33.1536 364.357C31.641 365.297 29.8937 365.791 28.113 365.781V365.781Z" fill="#BA9E66"/>
<path d="M37.9477 322.494H36.9102V356.629H37.9477V322.494Z" fill="#BA9E66"/>
<path d="M19.2719 322.494H18.2344V356.629H19.2719V322.494Z" fill="#BA9E66"/>
<path d="M94.0805 269.818H93.043V554.417H94.0805V269.818Z" fill="#BA9E66"/>
<path d="M99.8262 410.41L99.6133 411.426L164.867 425.106L165.08 424.09L99.8262 410.41Z" fill="#BA9E66"/>
<path d="M103.354 304.506L103.002 305.482L162.926 327.104L163.278 326.128L103.354 304.506Z" fill="#BA9E66"/>
<path d="M193.113 332.081H173.348V333.119H193.113V332.081Z" fill="#BA9E66"/>
<path d="M193.113 340.88H173.348V341.917H193.113V340.88Z" fill="#BA9E66"/>
<path d="M193.113 343.93H173.348V344.967H193.113V343.93Z" fill="#BA9E66"/>
<path d="M193.113 351.711H173.348V352.748H193.113V351.711Z" fill="#BA9E66"/>
<path d="M187.323 319.454H186.285V332.6H187.323V319.454Z" fill="#BA9E66"/>
<path d="M182.956 319.454H181.918V332.6H182.956V319.454Z" fill="#BA9E66"/>
<path d="M178.598 319.454H177.561V332.6H178.598V319.454Z" fill="#BA9E66"/>
<path d="M198.867 335.572L198.426 336.511L216.462 344.994L216.903 344.055L198.867 335.572Z" fill="#BA9E66"/>
<path d="M198.895 343.418L198.453 344.356L216.489 352.84L216.93 351.901L198.895 343.418Z" fill="#BA9E66"/>
<path d="M200.197 398.577L199.801 399.536L216.545 406.451L216.941 405.492L200.197 398.577Z" fill="#BA9E66"/>
<path d="M103.182 375.936L102.924 376.94L162.846 392.337L163.104 391.332L103.182 375.936Z" fill="#BA9E66"/>
<path d="M103.178 388.256L102.92 389.261L162.842 404.657L163.1 403.652L103.178 388.256Z" fill="#BA9E66"/>
<path d="M434.185 351.722L399.905 315.449L227.32 316.009L204.701 302.552H184.542L94.6803 256.143H-137.18V255.105H94.9397L184.801 301.515H204.992L227.61 314.972L400.351 314.401L400.507 314.567L434.943 351.016L434.185 351.722Z" fill="#BA9E66"/>
<path d="M432.237 389.613H431.199V419.951H432.237V389.613Z" fill="#BA9E66"/>
<path d="M426.821 385.629H425.783V417.72H426.821V385.629Z" fill="#BA9E66"/>
<path d="M419.1 379.362H418.062V414.556H419.1V379.362Z" fill="#BA9E66"/>
<path d="M399.948 364.4H398.91V406.701H399.948V364.4Z" fill="#BA9E66"/>
<path d="M410.323 372.493H409.285V410.945H410.323V372.493Z" fill="#BA9E66"/>
<path d="M279.582 261.653L278.887 260.896C283.628 256.538 291.659 253.934 300.354 253.934C308.581 253.934 316.353 256.32 321.105 260.315L320.44 261.113C315.823 257.264 308.291 254.971 300.302 254.971C291.908 254.971 284.158 257.472 279.582 261.653Z" fill="#BA9E66"/>
<path d="M286.7 294.17H285.662V266.737L285.828 266.582C289.024 263.645 294.409 261.902 300.24 261.902C305.759 261.902 310.978 263.5 314.205 266.187L314.392 266.343V293.765H313.354V266.789C310.293 264.351 305.417 262.898 300.24 262.898C294.772 262.898 289.729 264.486 286.7 267.152V294.17Z" fill="#BA9E66"/>
<path d="M300.551 262.41H299.514V293.754H300.551V262.41Z" fill="#BA9E66"/>
<path d="M313.8 277.766H286.264V278.803H313.8V277.766Z" fill="#BA9E66"/>
<path d="M46.4123 160.516L45.5098 161.028L70.8313 205.675L71.7338 205.163L46.4123 160.516Z" fill="#BA9E66"/>
<path d="M103.571 189.329L102.586 189.655L116.264 230.942L117.249 230.616L103.571 189.329Z" fill="#BA9E66"/>
<path d="M159.321 333.97H158.283V383.118H159.321V333.97Z" fill="#BA9E66"/>
<path d="M150.813 330.898H149.775V380.929H150.813V330.898Z" fill="#BA9E66"/>
<path d="M141.143 327.215H140.105V378.438H141.143V327.215Z" fill="#BA9E66"/>
<path d="M130.145 323.2H129.107V375.617H130.145V323.2Z" fill="#BA9E66"/>
<path d="M111.987 318.137H110.949V371.83H111.987V318.137Z" fill="#BA9E66"/>
<path d="M111.987 427.162H110.949V552.798H111.987V427.162Z" fill="#BA9E66"/>
<path d="M142.751 459.191H141.713C141.713 448.711 138.84 441.666 136.163 441.666C133.486 441.666 130.612 448.711 130.612 459.191H129.574C129.574 448.815 132.469 440.629 136.163 440.629C139.856 440.629 142.751 448.784 142.751 459.191Z" fill="#BA9E66"/>
</g>
</svg>